<?xml version="1.0" encoding="iso-8859-1"?>
<!DOCTYPE svg PUBLIC "-//W3C//DTD SVG 1.1//EN" "http://www.w3.org/Graphics/SVG/1.1/DTD/svg11.dtd">
<svg xmlns="http://www.w3.org/2000/svg" width="400" height="300">
	<style type="text/css"><![CDATA[
		g { visibility:hidden }
		path { stroke-width:0 }
	]]></style>
	<g>
		<animate id="FRAME_0" attributeName="visibility" values="visible" dur="33ms" begin="0s;FRAME_27.end"/>
		<path style="fill:rgb(39,39,39)"
		 d="M199.000000,46.250000 L199.750000,46.250000 L235.000000,149.250000 L163.750000,149.000000 L199.000000,46.250000 M349.750000,149.750000 L279.250000,189.250000 L253.500000,203.500000 L235.000000,150.000000 L349.750000,149.750000 M49.250000,149.750000 L163.750000,150.250000 L145.500000,203.500000 L119.750000,189.500000 L49.250000,149.750000 M119.750000,277.500000 L145.250000,203.750000 L186.250000,241.500000 L120.750000,278.000000 L119.750000,278.500000 L119.750000,277.500000 M253.500000,203.750000 L279.250000,278.250000 L212.750000,241.500000 L253.500000,203.750000 "/>
		<path style="fill:rgb(64,64,64)"
		 d="M121.000000,21.250000 L186.250000,57.750000 L145.250000,95.500000 L119.750000,22.000000 L119.750000,21.000000 L121.000000,21.250000 M212.750000,57.750000 L279.250000,21.000000 L257.000000,86.250000 Q254.500000,94.750000 253.250000,95.250000 L212.750000,57.750000 M119.750000,109.750000 L145.500000,95.750000 L163.750000,149.000000 L235.000000,149.250000 L253.500000,95.750000 L279.250000,110.000000 L349.750000,149.750000 L235.000000,150.000000 L199.500000,253.250000 L199.000000,253.000000 L163.750000,150.250000 L49.250000,149.750000 L119.750000,109.750000 "/>
		<path style="fill:rgb(45,45,45)"
		 d="M199.750000,46.250000 L212.750000,57.750000 L253.250000,95.250000 Q254.500000,94.750000 257.000000,86.250000 L279.250000,21.000000 L279.250000,110.000000 L253.500000,95.750000 L235.000000,149.250000 L199.750000,46.250000 M199.000000,46.250000 L163.750000,149.000000 L145.500000,95.750000 L119.750000,109.750000 L119.750000,22.000000 L145.250000,95.500000 L186.250000,57.750000 L199.000000,46.250000 M119.750000,189.500000 L145.500000,203.500000 L163.750000,150.250000 L199.000000,253.000000 L186.250000,241.500000 L145.250000,203.750000 L119.750000,277.500000 L119.750000,189.500000 M235.000000,150.000000 L253.500000,203.500000 L279.250000,189.250000 L279.250000,278.250000 L253.500000,203.750000 L212.750000,241.500000 L199.500000,253.250000 L235.000000,150.000000 "/>
	</g>
	<g>
		<animate id="FRAME_1" attributeName="visibility" values="visible" dur="33ms" begin="FRAME_0.end"/>
		<path style="fill:rgb(38,38,38)"
		 d="M217.750000,46.500000 L218.000000,46.000000 L218.250000,46.500000 L245.000000,149.250000 L174.500000,149.250000 L217.750000,46.500000 M56.500000,149.750000 L174.500000,150.000000 L151.500000,204.500000 L196.500000,237.500000 L119.250000,280.500000 L119.000000,279.750000 L151.250000,204.000000 L119.000000,186.000000 L56.500000,149.750000 M354.250000,149.750000 L277.500000,192.500000 L258.750000,203.000000 L245.000000,150.000000 L354.250000,149.750000 M224.250000,246.000000 L258.500000,203.250000 L277.500000,275.750000 Q276.750000,277.000000 274.750000,275.000000 L224.250000,246.000000 "/>
		<path style="fill:rgb(80,80,80)"
		 d="M218.250000,46.500000 L224.250000,53.250000 L258.500000,96.000000 L277.500000,23.500000 L277.500000,106.750000 L258.500000,96.500000 L245.000000,149.250000 L218.250000,46.500000 M277.500000,192.500000 L277.500000,275.750000 L258.500000,203.250000 L224.250000,246.000000 L218.250000,252.750000 L245.000000,150.000000 L258.750000,203.000000 L277.500000,192.500000 "/>
		<path style="fill:rgb(63,63,63)"
		 d="M224.250000,53.250000 L275.000000,24.000000 L277.250000,22.750000 L277.500000,23.500000 L258.500000,96.000000 L224.250000,53.250000 M119.000000,19.500000 L119.500000,18.750000 L196.500000,61.750000 L151.500000,94.750000 L174.500000,149.250000 L245.000000,149.250000 L258.500000,96.500000 L277.500000,106.750000 L353.500000,148.750000 L354.750000,149.500000 L354.250000,149.750000 L245.000000,150.000000 L218.250000,252.750000 L217.750000,252.750000 L174.500000,150.000000 L56.500000,149.750000 L56.000000,149.500000 L56.750000,149.000000 L119.000000,113.250000 L151.250000,94.750000 L119.000000,19.500000 "/>
		<path style="fill:rgb(36,36,36)"
		 d="M217.750000,46.500000 L174.500000,149.250000 L151.500000,94.750000 L196.500000,61.750000 L217.750000,46.500000 M119.000000,19.500000 L151.250000,94.750000 L119.000000,113.250000 L119.000000,19.500000 M196.500000,237.500000 L151.500000,204.500000 L174.500000,150.000000 L217.750000,252.750000 L196.500000,237.500000 M119.000000,279.750000 L119.000000,186.000000 L151.250000,204.000000 L119.000000,279.750000 "/>
	</g>
	<g>
		<animate id="FRAME_2" attributeName="visibility" values="visible" dur="33ms" begin="FRAME_1.end"/>
		<path style="fill:rgb(36,36,36)"
		 d="M236.250000,47.000000 L236.750000,47.250000 L237.000000,48.000000 L254.000000,149.000000 L185.500000,149.250000 L236.250000,47.000000 M66.250000,149.750000 L185.500000,150.000000 L158.250000,205.000000 L206.000000,234.000000 L120.000000,282.500000 L119.250000,282.750000 L119.250000,282.000000 L157.750000,204.500000 L119.250000,181.750000 L66.250000,149.750000 M356.500000,149.750000 L275.000000,195.500000 L262.750000,202.250000 L254.000000,150.250000 L356.500000,149.750000 M237.000000,251.500000 L263.000000,202.750000 L275.000000,274.250000 L236.750000,252.000000 L237.000000,251.500000 "/>
		<path style="fill:rgb(62,62,62)"
		 d="M236.750000,47.250000 L275.000000,25.000000 L263.000000,96.500000 L237.000000,48.000000 L236.750000,47.250000 M120.000000,16.750000 L206.000000,65.250000 L158.250000,94.250000 L185.500000,149.250000 L254.000000,149.000000 L262.750000,97.250000 L275.000000,103.750000 L356.500000,149.750000 L254.000000,150.250000 L237.000000,251.500000 L236.750000,252.000000 L236.250000,252.250000 L185.500000,150.000000 L66.250000,149.750000 L119.250000,117.500000 L157.750000,94.750000 L157.750000,94.000000 L119.250000,17.250000 L119.250000,16.500000 L120.000000,16.750000 "/>
		<path style="fill:rgb(38,38,38)"
		 d="M236.250000,47.000000 L185.500000,149.250000 L158.250000,94.250000 L206.000000,65.250000 L236.250000,47.000000 M119.250000,17.250000 L157.750000,94.000000 L157.750000,94.750000 L119.250000,117.500000 L119.250000,17.250000 M206.000000,234.000000 L158.250000,205.000000 L185.500000,150.000000 L236.250000,252.250000 L206.000000,234.000000 M119.250000,181.750000 L157.750000,204.500000 L119.250000,282.000000 L119.250000,181.750000 "/>
		<path style="fill:rgb(21,21,21)"
		 d="M237.000000,48.000000 L263.000000,96.500000 L275.000000,25.000000 L275.000000,103.750000 L262.750000,97.250000 L254.000000,149.000000 L237.000000,48.000000 M275.000000,195.500000 L275.000000,274.250000 L263.000000,202.750000 L237.000000,251.500000 L254.000000,150.250000 L262.750000,202.250000 L275.000000,195.500000 "/>
	</g>
	<g>
		<animate id="FRAME_3" attributeName="visibility" values="visible" dur="33ms" begin="FRAME_2.end"/>
		<path style="fill:rgb(57,57,57)"
		 d="M267.250000,29.000000 L270.250000,27.000000 L271.500000,27.250000 L266.000000,96.250000 L254.250000,49.500000 L254.000000,48.500000 L253.500000,47.750000 L252.500000,48.250000 L251.250000,48.750000 L251.000000,49.000000 L250.750000,49.000000 L210.750000,65.000000 L265.000000,30.250000 L265.250000,30.250000 L265.500000,30.000000 L266.250000,29.500000 L266.500000,29.500000 L267.250000,29.000000 M120.500000,15.250000 L121.000000,14.500000 L207.250000,64.000000 L210.000000,66.000000 L168.250000,92.500000 L165.500000,94.000000 L164.500000,93.000000 L121.500000,16.000000 L120.500000,15.250000 M162.500000,95.750000 L163.000000,95.500000 L165.750000,94.250000 L196.750000,149.250000 L261.500000,149.500000 L262.000000,148.000000 L265.750000,99.500000 L266.000000,97.750000 L271.500000,100.750000 L356.500000,149.750000 L262.000000,149.750000 L262.000000,151.250000 L254.250000,249.750000 L254.000000,250.750000 L253.500000,251.500000 L196.750000,150.000000 L78.500000,149.750000 L80.250000,148.250000 L80.750000,147.750000 L81.000000,147.750000 L162.250000,95.750000 L162.500000,95.750000 "/>
		<path style="fill:rgb(43,43,43)"
		 d="M252.500000,48.250000 L253.500000,47.750000 L196.750000,149.250000 L165.750000,94.250000 L163.000000,95.500000 L162.500000,95.750000 L162.250000,95.750000 L121.000000,117.500000 L120.500000,114.500000 L120.250000,114.500000 L120.500000,15.250000 L121.500000,16.000000 L164.500000,93.000000 L165.500000,94.000000 L168.250000,92.500000 L250.750000,49.000000 L251.000000,49.000000 L251.250000,48.750000 L252.500000,48.250000 M65.750000,146.250000 L118.750000,118.500000 L119.250000,118.750000 L81.000000,147.750000 L80.750000,147.750000 L80.250000,148.250000 L78.500000,149.750000 L80.250000,151.000000 L80.750000,151.500000 L81.000000,151.500000 L119.000000,180.750000 L65.750000,153.000000 L65.500000,153.000000 L65.000000,152.750000 L64.500000,152.500000 L64.000000,152.000000 L63.500000,151.750000 L63.000000,151.500000 L59.500000,149.750000 L63.000000,147.750000 L63.250000,147.500000 L63.750000,147.250000 L64.500000,146.750000 L64.750000,146.750000 L65.250000,146.500000 L65.750000,146.250000 M120.250000,184.750000 L121.000000,181.750000 L162.250000,203.500000 L162.500000,203.500000 L163.000000,203.750000 L165.750000,205.000000 L196.750000,150.000000 L253.500000,251.500000 L252.000000,250.750000 L251.500000,250.500000 L251.000000,250.250000 L250.750000,250.250000 L168.250000,206.750000 Q164.500000,203.750000 164.250000,206.750000 L120.500000,284.250000 L120.500000,185.000000 L120.250000,184.750000 "/>
		<path style="fill:rgb(34,34,34)"
		 d="M253.500000,47.750000 L254.000000,48.500000 L254.250000,49.500000 L262.000000,148.000000 L261.500000,149.500000 L196.750000,149.250000 L253.500000,47.750000 M78.500000,149.750000 L196.750000,150.000000 L165.750000,205.000000 L163.000000,203.750000 L162.500000,203.500000 L162.250000,203.500000 L81.000000,151.500000 L80.750000,151.500000 L80.250000,151.000000 L78.500000,149.750000 M262.000000,151.250000 L262.000000,149.750000 L356.500000,149.750000 L271.500000,198.500000 Q267.000000,201.750000 266.000000,201.000000 L262.000000,151.250000 M207.250000,235.250000 L122.000000,284.250000 L120.500000,284.250000 L164.250000,206.750000 Q164.500000,203.750000 168.250000,206.750000 L210.000000,233.250000 L207.250000,235.250000 M250.750000,250.250000 L251.000000,250.250000 L251.500000,250.500000 L252.000000,250.750000 L253.500000,251.500000 L254.000000,250.750000 L254.250000,249.750000 L266.000000,203.000000 L271.500000,272.000000 L270.250000,272.250000 L267.250000,270.250000 L266.750000,270.000000 L266.250000,269.750000 L265.750000,269.250000 L265.250000,269.000000 L265.000000,269.000000 L211.500000,234.750000 L211.750000,234.250000 L250.750000,250.250000 "/>
		<path style="fill:rgb(92,92,92)"
		 d="M265.000000,30.250000 L210.750000,65.000000 L250.750000,49.000000 L168.250000,92.500000 L210.000000,66.000000 L207.250000,64.000000 L265.000000,30.250000 M120.250000,114.500000 L120.500000,114.500000 L121.000000,117.500000 L162.250000,95.750000 L81.000000,147.750000 L119.250000,118.750000 L118.750000,118.500000 L65.750000,146.250000 L120.250000,114.500000 "/>
		<path style="fill:rgb(31,31,31)"
		 d="M266.000000,96.250000 L271.500000,27.250000 L271.500000,100.750000 L266.000000,97.750000 L265.750000,99.500000 L262.000000,148.000000 L254.250000,49.500000 L266.000000,96.250000 M266.000000,201.000000 Q267.000000,201.750000 271.500000,198.500000 L271.500000,272.000000 L266.000000,203.000000 L254.250000,249.750000 L262.000000,151.250000 L266.000000,201.000000 "/>
		<path style="fill:rgb(68,68,68)"
		 d="M65.750000,153.000000 L119.000000,180.750000 L81.000000,151.500000 L162.250000,203.500000 L121.000000,181.750000 L120.250000,184.750000 L65.750000,153.000000 M207.250000,235.250000 L210.000000,233.250000 L168.250000,206.750000 L250.750000,250.250000 L211.750000,234.250000 L211.500000,234.750000 L265.000000,269.000000 L207.250000,235.250000 "/>
	</g>
	<g>
		<animate id="FRAME_4" attributeName="visibility" values="visible" dur="33ms" begin="FRAME_3.end"/>
		<path style="fill:rgb(53,53,53)"
		 d="M264.500000,29.750000 L264.750000,29.750000 L267.250000,28.500000 L267.500000,49.750000 L214.000000,65.500000 L264.500000,29.750000 M269.000000,49.250000 L269.750000,49.000000 L208.000000,149.250000 L269.000000,149.500000 L269.750000,99.250000 L350.250000,146.750000 L354.250000,149.750000 L269.000000,149.750000 L269.750000,200.000000 L270.500000,250.250000 L269.750000,250.250000 L269.000000,250.000000 L268.500000,249.750000 L268.250000,249.750000 L174.750000,206.250000 L173.500000,205.250000 L208.000000,150.000000 L93.500000,149.750000 L94.000000,150.250000 L122.000000,181.500000 L56.000000,151.250000 L55.500000,151.000000 L55.000000,150.750000 L54.500000,150.500000 L52.750000,149.750000 L54.500000,148.750000 L55.000000,148.500000 L55.500000,148.250000 L56.000000,148.000000 L122.000000,117.500000 L122.500000,117.750000 L94.000000,149.000000 L171.750000,94.500000 L122.750000,117.250000 L122.750000,110.250000 L122.500000,110.250000 L122.750000,12.750000 L123.250000,12.250000 L207.250000,62.000000 Q213.250000,64.750000 213.250000,66.250000 L174.750000,93.000000 L268.250000,49.500000 L268.500000,49.500000 L269.000000,49.250000 M122.500000,189.000000 L122.750000,182.000000 L171.750000,204.750000 L172.000000,204.750000 L173.250000,205.750000 L122.750000,286.500000 L122.750000,189.250000 L122.500000,189.000000 "/>
		<path style="fill:rgb(66,66,66)"
		 d="M268.250000,49.500000 L174.750000,93.000000 L213.250000,66.250000 Q213.250000,64.750000 207.250000,62.000000 L264.500000,29.750000 L214.000000,65.500000 L267.500000,49.750000 L268.250000,49.500000 M122.500000,110.250000 L122.750000,110.250000 L122.750000,117.250000 L171.750000,94.500000 L94.000000,149.000000 L122.500000,117.750000 L122.000000,117.500000 L56.000000,148.000000 L122.500000,110.250000 "/>
		<path style="fill:rgb(32,32,32)"
		 d="M270.500000,49.000000 L269.750000,99.250000 L269.000000,149.500000 L208.000000,149.250000 L269.750000,49.000000 L270.500000,49.000000 M93.500000,149.750000 L208.000000,150.000000 L173.500000,205.250000 L174.750000,206.250000 L213.500000,233.250000 L207.250000,237.250000 L125.500000,285.750000 L123.000000,287.000000 L122.750000,286.500000 L173.250000,205.750000 L172.000000,204.750000 L171.750000,204.750000 L94.000000,150.250000 L93.500000,149.750000 M269.750000,200.000000 L269.000000,149.750000 L354.250000,149.750000 L269.750000,200.000000 M255.000000,245.750000 L267.500000,249.500000 L267.250000,270.750000 L264.750000,269.500000 L264.500000,269.500000 L214.000000,234.000000 L215.000000,233.750000 L255.000000,245.750000 "/>
		<path style="fill:rgb(57,57,57)"
		 d="M56.000000,151.250000 L122.000000,181.500000 L94.000000,150.250000 L171.750000,204.750000 L122.750000,182.000000 L122.500000,189.000000 L56.000000,151.250000 M207.250000,237.250000 L213.500000,233.250000 L174.750000,206.250000 L268.250000,249.750000 L267.500000,249.500000 L255.000000,245.750000 L215.000000,233.750000 L214.000000,234.000000 L264.500000,269.500000 L207.250000,237.250000 "/>
	</g>
	<g>
		<animate id="FRAME_5" attributeName="visibility" values="visible" dur="33ms" begin="FRAME_4.end"/>
		<path style="fill:rgb(49,49,49)"
		 d="M260.250000,31.000000 L260.500000,31.000000 L262.250000,30.000000 L265.000000,55.000000 L216.750000,66.000000 L260.250000,31.000000 M126.250000,10.500000 L127.000000,10.250000 L207.500000,60.500000 L216.500000,66.250000 L182.750000,93.000000 Q181.000000,94.000000 184.750000,98.000000 L219.000000,149.250000 L274.750000,149.500000 L279.250000,105.250000 L350.500000,149.750000 L274.750000,149.750000 L279.250000,194.000000 L283.750000,235.250000 L285.000000,247.750000 L284.500000,248.750000 L219.000000,150.000000 L111.000000,149.750000 L111.250000,149.000000 L181.000000,94.000000 L181.500000,93.000000 L180.500000,91.500000 L171.250000,77.500000 L126.250000,10.500000 "/>
		<path style="fill:rgb(78,78,78)"
		 d="M283.750000,50.750000 L284.500000,50.500000 L219.000000,149.250000 L184.750000,98.000000 Q181.000000,94.000000 182.750000,93.000000 L283.000000,51.000000 L283.250000,51.000000 L283.750000,50.750000 M126.250000,10.500000 L171.250000,77.500000 L180.500000,91.500000 L181.500000,93.000000 L181.000000,94.000000 L126.250000,116.750000 L111.250000,149.000000 L111.000000,149.750000 L111.250000,150.250000 L126.000000,182.500000 L49.250000,150.500000 L47.500000,149.750000 L49.250000,148.750000 L126.000000,117.000000 L126.250000,106.000000 L126.000000,106.000000 L126.250000,10.500000 M126.000000,193.250000 L126.250000,182.500000 L181.000000,205.250000 L181.250000,206.500000 L126.250000,288.750000 L126.250000,193.500000 L126.000000,193.250000 M182.750000,206.250000 L182.000000,205.500000 L219.000000,150.000000 L284.500000,248.750000 L283.750000,248.500000 L283.250000,248.250000 L283.000000,248.250000 L182.750000,206.250000 "/>
		<path style="fill:rgb(50,50,50)"
		 d="M283.000000,51.000000 L182.750000,93.000000 L216.500000,66.250000 L207.500000,60.500000 L260.250000,31.000000 L216.750000,66.000000 L265.000000,55.000000 L283.000000,51.000000 M126.000000,106.000000 L126.250000,106.000000 L126.000000,117.000000 L49.250000,148.750000 L126.000000,106.000000 M111.250000,149.000000 L126.250000,116.750000 L181.000000,94.000000 L111.250000,149.000000 "/>
		<path style="fill:rgb(30,30,30)"
		 d="M285.000000,50.750000 L279.250000,105.250000 L274.750000,149.500000 L219.000000,149.250000 L284.500000,50.500000 L285.000000,50.750000 M111.000000,149.750000 L219.000000,150.000000 L182.000000,205.500000 L182.750000,206.250000 L216.500000,233.000000 L207.500000,238.750000 L127.000000,289.000000 L126.250000,288.750000 L181.250000,206.500000 L181.000000,205.250000 L111.250000,150.250000 L111.000000,149.750000 M279.250000,194.000000 L274.750000,149.750000 L350.500000,149.750000 L279.250000,194.000000 M260.250000,268.250000 L216.750000,233.500000 L265.000000,244.250000 L262.500000,268.500000 L261.750000,269.250000 L260.500000,268.250000 L260.250000,268.250000 "/>
		<path style="fill:rgb(46,46,46)"
		 d="M49.250000,150.500000 L126.000000,182.500000 L111.250000,150.250000 L181.000000,205.250000 L126.250000,182.500000 L126.000000,193.250000 L49.250000,150.500000 M207.500000,238.750000 L216.500000,233.000000 L182.750000,206.250000 L283.000000,248.250000 L265.000000,244.250000 L216.750000,233.500000 L260.250000,268.250000 L207.500000,238.750000 "/>
	</g>
	<g>
		<animate id="FRAME_6" attributeName="visibility" values="visible" dur="33ms" begin="FRAME_5.end"/>
		<path style="fill:rgb(118,118,118)"
		 d="M296.500000,52.500000 L297.250000,52.500000 L230.000000,149.500000 L191.500000,94.250000 L190.000000,93.750000 L131.000000,116.250000 L130.500000,149.750000 L130.500000,150.000000 L130.750000,183.000000 L45.750000,150.500000 L45.250000,150.250000 L44.750000,150.000000 L43.750000,149.750000 L44.750000,149.250000 L45.250000,149.000000 L45.750000,148.750000 L130.500000,116.500000 L131.000000,101.500000 L130.750000,101.500000 L131.000000,8.750000 L189.500000,92.250000 L190.250000,93.250000 L191.250000,93.000000 L296.500000,52.500000 M130.750000,197.750000 L131.000000,183.000000 L190.000000,205.500000 L191.500000,205.000000 L229.750000,149.750000 L297.250000,246.750000 L296.500000,246.750000 L191.250000,206.250000 Q188.750000,206.000000 183.000000,216.250000 L131.000000,290.750000 L131.000000,198.000000 L130.750000,197.750000 "/>
		<path style="fill:rgb(45,45,45)"
		 d="M131.000000,8.750000 L131.500000,8.250000 L207.500000,58.500000 L219.500000,66.250000 L255.500000,32.000000 L256.750000,31.500000 L262.000000,58.750000 L219.000000,66.750000 L191.250000,93.000000 L190.250000,93.250000 L189.500000,92.250000 L131.000000,8.750000 M190.000000,93.750000 L191.500000,94.250000 L230.000000,149.500000 L279.250000,149.500000 L286.750000,111.000000 L345.000000,149.750000 L279.250000,149.750000 L286.750000,188.250000 L297.750000,245.750000 L297.750000,247.000000 L297.250000,246.750000 L229.750000,149.750000 L130.500000,149.750000 L190.000000,93.750000 "/>
		<path style="fill:rgb(41,41,41)"
		 d="M207.500000,58.500000 L255.500000,32.000000 L219.500000,66.250000 L207.500000,58.500000 M296.500000,52.500000 L191.250000,93.000000 L219.000000,66.750000 L262.000000,58.750000 L296.500000,52.500000 M130.750000,101.500000 L131.000000,101.500000 L130.500000,116.500000 L45.750000,148.750000 L130.750000,101.500000 M130.500000,149.750000 L131.000000,116.250000 L190.000000,93.750000 L130.500000,149.750000 "/>
		<path style="fill:rgb(29,29,29)"
		 d="M286.750000,111.000000 L279.250000,149.500000 L230.000000,149.500000 L297.250000,52.500000 L297.750000,52.250000 L297.750000,53.500000 L286.750000,111.000000 M130.500000,149.750000 L229.750000,149.750000 L191.500000,205.000000 L190.000000,205.500000 L130.500000,150.000000 L130.500000,149.750000 M286.750000,188.250000 L279.250000,149.750000 L345.000000,149.750000 L286.750000,188.250000 M250.000000,238.250000 L262.000000,240.500000 L257.250000,266.000000 L256.750000,267.750000 L255.500000,267.250000 L219.500000,233.000000 L207.500000,240.750000 L132.000000,290.750000 L131.000000,290.750000 L183.000000,216.250000 Q188.750000,206.000000 191.250000,206.250000 L219.250000,232.750000 L250.000000,238.250000 "/>
		<path style="fill:rgb(36,36,36)"
		 d="M45.750000,150.500000 L130.750000,183.000000 L130.500000,150.000000 L190.000000,205.500000 L131.000000,183.000000 L130.750000,197.750000 L45.750000,150.500000 M250.000000,238.250000 L219.250000,232.750000 L191.250000,206.250000 L296.500000,246.750000 L262.000000,240.500000 L250.000000,238.250000 M207.500000,240.750000 L219.500000,233.000000 L255.500000,267.250000 L207.500000,240.750000 "/>
	</g>
	<g>
		<animate id="FRAME_7" attributeName="visibility" values="visible" dur="33ms" begin="FRAME_6.end"/>
		<path style="fill:rgb(155,155,155)"
		 d="M136.500000,10.250000 L136.750000,6.750000 L193.750000,85.250000 L199.000000,93.500000 L137.000000,115.500000 L136.750000,116.750000 L136.750000,182.500000 L136.750000,183.500000 L137.750000,184.000000 L199.000000,205.750000 L198.750000,207.000000 L136.750000,292.500000 L136.500000,289.250000 L136.500000,184.000000 Q135.750000,182.250000 126.000000,179.500000 L43.000000,150.000000 L42.000000,149.750000 L43.000000,149.250000 L135.750000,116.250000 L136.500000,115.250000 L136.500000,10.250000 M307.500000,54.500000 L240.000000,149.250000 L201.500000,96.250000 Q199.000000,93.750000 200.000000,93.000000 L307.500000,54.500000 M200.000000,206.250000 L199.750000,205.500000 L240.000000,150.000000 L307.500000,244.750000 L200.000000,206.250000 "/>
		<path style="fill:rgb(42,42,42)"
		 d="M136.750000,6.750000 L137.000000,6.250000 L207.750000,56.500000 L221.750000,66.500000 L250.000000,33.000000 L250.750000,32.750000 L258.500000,61.500000 L222.000000,66.750000 L200.000000,93.000000 Q199.000000,93.750000 201.500000,96.250000 L240.000000,149.250000 L282.750000,149.500000 L291.750000,116.500000 L338.000000,149.750000 L282.750000,149.750000 L291.750000,182.750000 L308.750000,244.500000 L307.500000,244.750000 L240.000000,150.000000 L152.000000,149.750000 L199.000000,93.500000 L193.750000,85.250000 L136.750000,6.750000 "/>
		<path style="fill:rgb(38,38,38)"
		 d="M207.750000,56.500000 L250.000000,33.000000 L221.750000,66.500000 L207.750000,56.500000 M258.500000,61.500000 L307.500000,54.500000 L308.750000,54.750000 L291.750000,116.500000 L282.750000,149.500000 L240.000000,149.250000 L307.500000,54.500000 L200.000000,93.000000 L222.000000,66.750000 L258.500000,61.500000 M121.250000,82.250000 L121.000000,81.250000 L131.250000,79.750000 L129.500000,99.750000 L121.250000,82.250000 M122.750000,104.250000 L129.750000,100.500000 L136.500000,115.250000 L135.750000,116.250000 L43.000000,149.250000 L122.750000,104.250000 M136.750000,116.750000 L137.000000,115.500000 L199.000000,93.500000 L152.000000,149.750000 L240.000000,150.000000 L199.750000,205.500000 L200.000000,206.250000 L221.750000,232.500000 L207.750000,242.750000 L147.750000,285.500000 L137.500000,292.750000 L136.750000,292.500000 L198.750000,207.000000 L199.000000,205.750000 L152.000000,149.750000 L136.750000,116.750000 M291.750000,182.750000 L282.750000,149.750000 L338.000000,149.750000 L291.750000,182.750000 M250.000000,266.250000 L222.000000,232.750000 L258.500000,237.750000 L252.250000,261.500000 Q251.500000,266.250000 250.000000,266.250000 "/>
		<path style="fill:rgb(27,27,27)"
		 d="M136.500000,10.250000 L136.500000,115.250000 L129.750000,100.500000 L122.750000,104.250000 L121.250000,82.250000 L129.500000,99.750000 L131.250000,79.750000 L136.500000,10.250000 M136.750000,116.750000 L152.000000,149.750000 L136.750000,182.500000 L136.750000,116.750000 M122.750000,195.000000 L129.750000,198.750000 L136.500000,184.000000 L136.500000,289.250000 L131.250000,219.500000 L129.750000,199.500000 L129.500000,199.500000 L121.250000,217.000000 L122.750000,195.000000 "/>
		<path style="fill:rgb(29,29,29)"
		 d="M136.750000,182.500000 L152.000000,149.750000 L199.000000,205.750000 L137.750000,184.000000 L136.750000,183.500000 L136.750000,182.500000 M43.000000,150.000000 L126.000000,179.500000 Q135.750000,182.250000 136.500000,184.000000 L129.750000,198.750000 L122.750000,195.000000 L43.000000,150.000000 M129.500000,199.500000 L129.750000,199.500000 L131.250000,219.500000 L122.500000,218.250000 L121.000000,218.000000 L121.250000,217.000000 L129.500000,199.500000 M207.750000,242.750000 L221.750000,232.500000 L200.000000,206.250000 L307.500000,244.750000 L258.500000,237.750000 L222.000000,232.750000 L250.000000,266.250000 L207.750000,242.750000 "/>
	</g>
	<g>
		<animate id="FRAME_8" attributeName="visibility" values="visible" dur="33ms" begin="FRAME_7.end"/>
		<path style="fill:rgb(168,168,168)"
		 d="M143.250000,6.500000 L143.500000,4.750000 L208.000000,93.500000 L144.250000,115.250000 L143.250000,115.000000 L143.250000,6.500000 M316.750000,56.500000 L249.500000,149.250000 L208.750000,93.250000 L316.750000,56.500000 M43.000000,149.250000 L133.000000,118.750000 Q142.000000,114.750000 143.500000,116.000000 L143.500000,183.250000 L142.000000,183.500000 L43.000000,150.000000 L42.250000,149.750000 L43.000000,149.250000 M143.250000,184.250000 L144.250000,184.000000 L208.000000,205.750000 L143.500000,294.500000 L143.250000,293.000000 L143.250000,184.250000 M249.500000,150.000000 L316.750000,242.750000 L208.750000,206.000000 L249.500000,150.000000 "/>
		<path style="fill:rgb(39,39,39)"
		 d="M143.500000,4.750000 L208.000000,54.500000 L224.250000,67.000000 L243.500000,34.250000 L244.500000,34.000000 L254.750000,63.750000 L224.250000,67.250000 L208.750000,93.250000 L249.500000,149.250000 L285.000000,149.500000 L294.500000,122.000000 L330.000000,149.750000 L285.000000,149.750000 L294.500000,177.250000 L314.500000,233.750000 Q317.750000,241.500000 316.750000,242.750000 L249.500000,150.000000 L174.500000,149.750000 L208.000000,93.500000 L143.500000,4.750000 "/>
		<path style="fill:rgb(38,38,38)"
		 d="M208.000000,54.500000 L243.500000,34.250000 L224.250000,67.000000 L208.000000,54.500000 M254.750000,63.750000 L316.750000,56.500000 L208.750000,93.250000 L224.250000,67.250000 L254.750000,63.750000 M111.500000,80.500000 L111.250000,80.000000 L132.500000,77.750000 L129.250000,100.000000 L143.250000,115.000000 L144.250000,115.250000 L208.000000,93.500000 L174.500000,149.750000 L143.500000,116.000000 Q142.000000,114.750000 133.000000,118.750000 L43.000000,149.250000 L115.500000,107.500000 L115.500000,107.250000 L129.000000,99.500000 L111.500000,80.500000 "/>
		<path style="fill:rgb(21,21,21)"
		 d="M143.250000,6.500000 L143.250000,115.000000 L129.250000,100.000000 L132.500000,77.750000 L143.250000,6.500000 M111.500000,80.500000 L129.000000,99.500000 L115.500000,107.250000 L111.500000,80.500000 M143.500000,116.000000 L174.500000,149.750000 L143.500000,183.250000 L143.500000,116.000000 M115.500000,192.000000 L115.750000,192.000000 L129.000000,199.250000 L111.500000,218.750000 L115.500000,192.000000 M132.500000,221.500000 L129.250000,199.250000 L143.250000,184.250000 L143.250000,293.000000 L132.500000,221.500000 "/>
		<path style="fill:rgb(65,65,65)"
		 d="M317.500000,56.750000 L294.500000,122.000000 L285.000000,149.500000 L249.500000,149.250000 L316.750000,56.500000 L317.500000,56.750000 M249.500000,150.000000 L208.750000,206.000000 L224.750000,232.250000 L254.750000,235.500000 L244.500000,265.250000 L243.500000,265.000000 L224.250000,232.250000 L208.000000,244.750000 L143.500000,294.500000 L208.000000,205.750000 L174.500000,149.750000 L249.500000,150.000000 M294.500000,177.250000 L285.000000,149.750000 L330.000000,149.750000 L294.500000,177.250000 "/>
		<path style="fill:rgb(24,24,24)"
		 d="M143.500000,183.250000 L174.500000,149.750000 L208.000000,205.750000 L144.250000,184.000000 L143.250000,184.250000 L129.250000,199.250000 L132.500000,221.500000 L111.250000,219.250000 L111.500000,218.750000 L129.000000,199.250000 L115.750000,192.000000 L115.500000,192.000000 L43.000000,150.000000 L142.000000,183.500000 L143.500000,183.250000 M254.750000,235.500000 L224.750000,232.250000 L208.750000,206.000000 L316.750000,242.750000 L254.750000,235.500000 M208.000000,244.750000 L224.250000,232.250000 L243.500000,265.000000 L208.000000,244.750000 "/>
	</g>
	<g>
		<animate id="FRAME_9" attributeName="visibility" values="visible" dur="33ms" begin="FRAME_8.end"/>
		<path style="fill:rgb(169,169,169)"
		 d="M150.750000,5.250000 L151.000000,3.250000 L216.750000,93.750000 L151.250000,115.250000 L151.250000,184.000000 L216.750000,205.500000 L151.000000,296.000000 L150.750000,294.000000 L151.000000,184.500000 L45.500000,150.000000 L45.000000,149.750000 L45.000000,149.500000 L45.500000,149.250000 L151.000000,114.750000 L150.750000,5.250000 M323.500000,59.000000 L258.000000,149.250000 L218.500000,95.500000 L217.500000,93.250000 L323.500000,59.000000 M217.500000,206.000000 L218.500000,203.750000 L258.000000,150.000000 L323.500000,240.500000 L217.500000,206.000000 "/>
		<path style="fill:rgb(40,40,40)"
		 d="M151.000000,3.250000 L151.500000,3.000000 L208.250000,52.000000 L226.000000,67.500000 L237.000000,35.000000 L237.500000,34.750000 L250.250000,65.500000 L226.000000,67.750000 L217.500000,93.250000 L218.500000,95.500000 L258.000000,149.250000 L286.000000,149.500000 L295.250000,127.500000 L320.750000,149.750000 L286.000000,149.750000 L295.250000,171.750000 L321.000000,232.500000 Q324.500000,239.250000 323.500000,240.500000 L258.000000,150.000000 L197.750000,149.750000 L216.750000,93.750000 L151.000000,3.250000 "/>
		<path style="fill:rgb(39,39,39)"
		 d="M208.250000,52.000000 L237.000000,35.000000 L226.000000,67.500000 L208.250000,52.000000 M250.250000,65.500000 L323.500000,59.000000 L217.500000,93.250000 L226.000000,67.750000 L250.250000,65.500000 M134.750000,75.750000 L129.500000,99.000000 L151.000000,114.750000 L45.500000,149.250000 L109.500000,111.000000 L109.500000,110.750000 L129.000000,99.500000 L129.250000,98.750000 L102.250000,79.000000 L134.750000,75.750000 M151.250000,115.250000 L216.750000,93.750000 L197.750000,149.750000 L151.250000,115.250000 "/>
		<path style="fill:rgb(77,77,77)"
		 d="M150.750000,5.250000 L151.000000,114.750000 L129.500000,99.000000 L134.750000,75.750000 L150.750000,5.250000 M102.250000,79.000000 L129.250000,98.750000 L129.000000,99.500000 L109.500000,110.750000 L102.250000,79.000000 M151.250000,115.250000 L197.750000,149.750000 L151.250000,184.000000 L151.250000,115.250000 M109.500000,188.500000 L109.750000,188.500000 L129.250000,200.000000 L128.750000,201.000000 L102.250000,220.250000 L109.500000,188.500000 M134.500000,223.250000 L129.500000,200.250000 L151.000000,184.500000 L150.750000,294.000000 L134.750000,223.500000 L134.500000,223.250000 "/>
		<path style="fill:rgb(17,17,17)"
		 d="M324.250000,58.750000 L295.250000,127.500000 L286.000000,149.500000 L258.000000,149.250000 L323.500000,59.000000 L324.250000,58.750000 M197.750000,149.750000 L258.000000,150.000000 L218.500000,203.750000 L217.500000,206.000000 L226.250000,231.750000 L250.250000,233.750000 L237.750000,264.000000 L237.000000,264.250000 L226.000000,231.750000 L208.250000,247.250000 L156.500000,292.000000 L151.000000,296.000000 L216.750000,205.500000 L197.750000,149.750000 M295.250000,171.750000 L286.000000,149.750000 L320.750000,149.750000 L295.250000,171.750000 "/>
		<path style="fill:rgb(20,20,20)"
		 d="M151.250000,184.000000 L197.750000,149.750000 L216.750000,205.500000 L151.250000,184.000000 M45.500000,150.000000 L151.000000,184.500000 L129.500000,200.250000 L134.500000,223.250000 L102.250000,220.250000 L128.750000,201.000000 L129.250000,200.000000 L109.750000,188.500000 L109.500000,188.500000 L45.500000,150.000000 M250.250000,233.750000 L226.250000,231.750000 L217.500000,206.000000 L323.500000,240.500000 L250.250000,233.750000 M208.250000,247.250000 L226.000000,231.750000 L237.000000,264.250000 L208.250000,247.250000 "/>
	</g>
	<g>
		<animate id="FRAME_10" attributeName="visibility" values="visible" dur="33ms" begin="FRAME_9.end"/>
		<path style="fill:rgb(171,171,171)"
		 d="M159.500000,2.750000 L159.750000,1.750000 L225.500000,93.750000 L225.500000,94.000000 L160.000000,115.000000 L160.000000,184.250000 L225.500000,205.500000 L225.500000,205.750000 L160.000000,297.500000 L159.500000,296.750000 L159.500000,184.750000 L50.500000,150.000000 L50.000000,149.750000 L49.500000,149.750000 L50.000000,149.500000 L50.500000,149.250000 L159.500000,114.500000 L159.500000,2.750000 M328.000000,61.250000 L328.500000,61.500000 L328.500000,61.750000 L265.750000,149.500000 L225.750000,93.750000 L327.750000,61.250000 L328.000000,61.250000 M225.750000,205.500000 L265.500000,149.750000 L328.500000,237.500000 L328.500000,237.750000 L328.000000,238.000000 L327.750000,238.000000 L225.750000,205.500000 "/>
		<path style="fill:rgb(40,40,40)"
		 d="M208.500000,49.250000 L230.000000,35.750000 L227.500000,67.750000 L208.500000,49.250000 M327.750000,61.250000 L225.750000,93.750000 L225.500000,93.750000 L227.750000,68.000000 L245.250000,66.750000 L327.750000,61.250000 M138.000000,74.250000 L131.500000,96.500000 L130.500000,98.000000 L94.000000,77.500000 L138.000000,74.250000 M105.000000,114.500000 L130.750000,98.250000 L159.500000,114.500000 L50.500000,149.250000 L105.000000,114.500000 M160.000000,115.000000 L225.500000,94.000000 L221.250000,149.750000 L160.000000,115.000000 "/>
		<path style="fill:rgb(52,52,52)"
		 d="M159.750000,1.750000 L208.500000,49.250000 L227.500000,67.750000 L230.000000,35.750000 L245.250000,66.750000 L227.750000,68.000000 L225.500000,93.750000 L225.750000,93.750000 L265.750000,149.500000 L285.750000,149.500000 L293.750000,133.000000 L310.750000,149.750000 L285.750000,149.750000 L293.750000,166.250000 L328.500000,237.500000 L265.500000,149.750000 L221.250000,149.750000 L225.500000,94.000000 L225.500000,93.750000 L159.750000,1.750000 "/>
		<path style="fill:rgb(45,45,45)"
		 d="M159.500000,2.750000 L159.500000,114.500000 L130.750000,98.250000 L105.000000,114.500000 L94.000000,77.500000 L130.500000,98.000000 L131.500000,96.500000 L138.000000,74.250000 L159.500000,2.750000 M160.000000,115.000000 L221.250000,149.750000 L160.000000,184.250000 L160.000000,115.000000 M105.000000,184.750000 L130.750000,200.750000 L94.000000,221.750000 L105.000000,184.750000 M138.000000,225.000000 L130.750000,201.250000 L159.500000,184.750000 L159.500000,296.750000 L138.000000,225.000000 "/>
		<path style="fill:rgb(18,18,18)"
		 d="M293.750000,133.000000 L285.750000,149.500000 L265.750000,149.500000 L328.500000,61.750000 L293.750000,133.000000 M221.250000,149.750000 L265.500000,149.750000 L225.750000,205.500000 L225.500000,205.500000 L221.250000,149.750000 M293.750000,166.250000 L285.750000,149.750000 L310.750000,149.750000 L293.750000,166.250000 M225.500000,205.750000 L227.750000,231.250000 L245.250000,232.500000 L230.000000,263.500000 L227.500000,231.500000 L208.500000,250.000000 L160.000000,297.500000 L225.500000,205.750000 "/>
		<path style="fill:rgb(64,64,64)"
		 d="M160.000000,184.250000 L221.250000,149.750000 L225.500000,205.500000 L225.750000,205.500000 L327.750000,238.000000 L245.250000,232.500000 L227.750000,231.250000 L225.500000,205.750000 L225.500000,205.500000 L160.000000,184.250000 M50.500000,150.000000 L159.500000,184.750000 L130.750000,201.250000 L138.000000,225.000000 L94.000000,221.750000 L130.750000,200.750000 L105.000000,184.750000 L50.500000,150.000000 M208.500000,250.000000 L227.500000,231.500000 L230.000000,263.500000 L208.500000,250.000000 "/>
	</g>
	<g>
		<animate id="FRAME_11" attributeName="visibility" values="visible" dur="33ms" begin="FRAME_10.end"/>
		<path style="fill:rgb(160,160,160)"
		 d="M169.250000,0.750000 L169.750000,1.250000 L170.000000,1.750000 L233.250000,93.500000 L235.000000,93.750000 L249.500000,89.250000 L330.500000,63.500000 L331.000000,64.000000 L331.000000,64.250000 L330.500000,64.750000 L330.500000,65.000000 L272.250000,149.500000 L233.500000,94.250000 L169.250000,114.750000 L169.250000,184.500000 L233.500000,205.000000 L271.750000,149.750000 L330.500000,234.250000 L330.500000,234.500000 L331.000000,235.250000 L331.250000,235.500000 L330.500000,235.750000 L234.000000,205.250000 L233.250000,205.750000 L170.000000,297.500000 L169.750000,298.000000 L169.250000,298.500000 L168.750000,298.000000 L168.750000,185.000000 L57.500000,149.750000 L168.750000,114.250000 L168.750000,1.500000 L169.250000,0.750000 "/>
		<path style="fill:rgb(78,78,78)"
		 d="M170.000000,1.750000 L208.750000,45.500000 L228.500000,68.000000 L222.250000,36.500000 L223.000000,36.250000 L240.000000,68.000000 L229.000000,68.750000 L233.250000,93.500000 L170.000000,1.750000 M233.500000,94.250000 L272.250000,149.500000 L284.750000,149.500000 L290.500000,138.750000 L300.000000,149.750000 L284.750000,149.750000 L290.500000,160.500000 L330.500000,234.250000 L271.750000,149.750000 L243.750000,149.500000 L233.500000,94.250000 "/>
		<path style="fill:rgb(41,41,41)"
		 d="M208.750000,45.500000 L222.250000,36.500000 L228.500000,68.000000 L208.750000,45.500000 M330.500000,63.500000 L249.500000,89.250000 L235.000000,93.750000 L233.250000,93.500000 L229.000000,68.750000 L240.000000,68.000000 L330.500000,63.500000 M142.000000,73.000000 L133.500000,96.750000 L132.500000,97.250000 L86.500000,76.000000 L142.000000,73.000000 M169.250000,114.750000 L233.500000,94.250000 L243.750000,149.500000 L169.250000,114.750000 M102.250000,118.500000 L132.500000,97.750000 L168.750000,114.250000 L57.500000,149.750000 L102.250000,118.500000 "/>
		<path style="fill:rgb(36,36,36)"
		 d="M168.750000,1.500000 L168.750000,114.250000 L132.500000,97.750000 L102.250000,118.500000 L86.500000,76.000000 L132.500000,97.250000 L133.500000,96.750000 L142.000000,73.000000 L168.750000,1.500000 M169.250000,114.750000 L243.750000,149.500000 L243.750000,149.750000 L169.250000,184.500000 L169.250000,114.750000 M102.250000,180.750000 L132.500000,201.500000 L168.750000,185.000000 L168.750000,298.000000 L142.000000,226.250000 L133.250000,202.000000 L132.500000,201.750000 L86.750000,223.500000 L102.250000,180.750000 "/>
		<path style="fill:rgb(27,27,27)"
		 d="M290.500000,138.750000 L284.750000,149.500000 L272.250000,149.500000 L330.500000,65.000000 L290.500000,138.750000 M243.750000,149.750000 L243.750000,149.500000 L271.750000,149.750000 L233.500000,205.000000 L243.750000,149.750000 M290.500000,160.500000 L284.750000,149.750000 L300.000000,149.750000 L290.500000,160.500000 M233.250000,205.750000 L229.000000,230.500000 L240.000000,231.250000 L223.000000,263.000000 L222.250000,262.750000 L228.500000,231.250000 L208.750000,253.750000 L170.000000,297.500000 L233.250000,205.750000 "/>
		<path style="fill:rgb(50,50,50)"
		 d="M102.250000,180.750000 L57.500000,149.750000 L168.750000,185.000000 L132.500000,201.500000 L102.250000,180.750000 M243.750000,149.750000 L233.500000,205.000000 L169.250000,184.500000 L243.750000,149.750000 M86.750000,223.500000 L132.500000,201.750000 L133.250000,202.000000 L142.000000,226.250000 L86.750000,223.500000 M233.250000,205.750000 L234.000000,205.250000 L330.500000,235.750000 L240.000000,231.250000 L229.000000,230.500000 L233.250000,205.750000 M208.750000,253.750000 L228.500000,231.250000 L222.250000,262.750000 L208.750000,253.750000 "/>
	</g>
	<g>
		<animate id="FRAME_12" attributeName="visibility" values="visible" dur="33ms" begin="FRAME_11.end"/>
		<path style="fill:rgb(125,125,125)"
		 d="M178.750000,0.100000 L179.250000,0.250000 L179.500000,0.600000 L179.750000,0.850000 L179.750000,1.000000 L240.350006,93.500000 L240.500000,93.599998 L240.600006,94.000000 L240.750000,94.099998 L241.000000,94.500000 L331.600006,65.599998 L332.000000,65.599998 L331.750000,66.099998 L331.500000,66.500000 L331.500000,66.599998 L331.250000,67.000000 L331.100006,67.099998 L331.100006,67.250000 L277.100006,149.500000 L241.350006,95.250000 L240.850006,94.599998 L239.600006,94.849998 L178.850006,114.099998 L179.000000,114.349998 L179.000000,184.750000 L178.850006,185.000000 L180.100006,185.350006 L240.500000,204.500000 L241.100006,204.350006 L241.350006,203.850006 L277.000000,149.600006 L331.100006,231.850006 L331.100006,232.000000 L331.250000,232.250000 L331.500000,232.600006 L331.600006,232.750000 L331.750000,233.000000 L332.000000,233.500000 L331.600006,233.500000 L241.000000,204.600006 L240.250000,206.000000 L179.750000,298.100006 L179.750000,298.250000 L179.500000,298.500000 L179.250000,298.850006 L178.750000,299.000000 L178.750000,185.000000 L67.500000,149.600006 L178.750000,114.099998 L178.750000,0.100000 "/>
		<path style="fill:rgb(36,36,36)"
		 d="M179.750000,1.000000 L209.100006,41.000000 L228.850006,67.750000 L215.600006,37.750000 L214.850006,36.750000 L215.350006,36.849998 L234.250000,68.849998 L229.600006,69.000000 L229.750000,69.500000 L240.350006,92.849998 L240.350006,93.500000 L179.750000,1.000000 M265.350006,149.500000 L265.350006,148.850006 L241.350006,95.250000 L277.100006,149.500000 L282.250000,149.500000 L285.100006,144.750000 L288.500000,149.600006 L282.250000,149.600006 L285.100006,154.350006 L331.100006,231.850006 L277.000000,149.600006 L265.350006,149.500000 "/>
		<path style="fill:rgb(42,42,42)"
		 d="M209.100006,41.000000 L214.850006,36.750000 L215.600006,37.750000 L228.850006,67.750000 L209.100006,41.000000 M234.250000,68.849998 L331.600006,65.599998 L241.000000,94.500000 L240.750000,94.099998 L240.600006,94.000000 L240.500000,93.599998 L240.350006,93.500000 L240.350006,92.849998 L229.750000,69.500000 L229.600006,69.000000 L234.250000,68.849998 M147.250000,71.599998 L136.250000,96.849998 L178.750000,114.099998 L67.500000,149.600006 L101.599998,123.250000 L136.100006,96.750000 L80.000000,74.000000 L147.250000,71.599998 M178.850006,114.099998 L239.600006,94.849998 L240.850006,94.599998 L241.350006,95.250000 L265.350006,148.850006 L265.350006,149.500000 L179.000000,114.349998 L178.850006,114.099998 "/>
		<path style="fill:rgb(39,39,39)"
		 d="M147.250000,71.599998 L178.750000,0.100000 L178.750000,114.099998 L136.250000,96.849998 L147.250000,71.599998 M101.599998,123.250000 L80.000000,74.000000 L136.100006,96.750000 L101.599998,123.250000 M265.350006,149.500000 L265.350006,149.600006 L179.000000,184.750000 L179.000000,114.349998 L265.350006,149.500000 M101.599998,175.850006 L136.100006,202.350006 L80.000000,225.100006 L101.599998,175.850006 M147.250000,227.500000 L136.250000,202.250000 L178.750000,185.000000 L178.750000,299.000000 L147.250000,227.500000 "/>
		<path style="fill:rgb(47,47,47)"
		 d="M285.100006,144.750000 L282.250000,149.500000 L277.100006,149.500000 L331.100006,67.250000 L285.100006,144.750000 M265.350006,149.500000 L277.000000,149.600006 L241.350006,203.850006 L265.350006,150.250000 L265.350006,149.600006 L265.350006,149.500000 M288.500000,149.600006 L285.100006,154.350006 L282.250000,149.600006 L288.500000,149.600006 M240.250000,206.000000 L229.850006,229.600006 L229.600006,230.100006 L234.250000,230.250000 L215.350006,262.250000 L214.850006,262.350006 L215.750000,261.100006 L228.850006,231.350006 L209.100006,258.100006 L179.750000,298.100006 L240.250000,206.000000 "/>
		<path style="fill:rgb(41,41,41)"
		 d="M101.599998,175.850006 L67.500000,149.600006 L178.750000,185.000000 L136.250000,202.250000 L147.250000,227.500000 L80.000000,225.100006 L136.100006,202.350006 L101.599998,175.850006 M179.000000,184.750000 L265.350006,149.600006 L265.350006,150.250000 L241.350006,203.850006 L241.100006,204.350006 L240.500000,204.500000 L180.100006,185.350006 L178.850006,185.000000 L179.000000,184.750000 M240.250000,206.000000 L241.000000,204.600006 L331.600006,233.500000 L234.250000,230.250000 L229.600006,230.100006 L229.850006,229.600006 L240.250000,206.000000 M209.100006,258.100006 L228.850006,231.350006 L215.750000,261.100006 L214.850006,262.350006 L209.100006,258.100006 "/>
	</g>
	<g>
		<animate id="FRAME_13" attributeName="visibility" values="visible" dur="33ms" begin="FRAME_12.end"/>
		<path style="fill:rgb(80,80,80)"
		 d="M188.850006,0.000000 L189.600006,0.000000 L232.000000,69.349998 L247.500000,95.099998 L188.850006,114.000000 L188.850006,0.000000 M330.600006,67.849998 L331.000000,68.099998 L283.250000,146.100006 L247.750000,94.849998 L330.600006,67.849998 M80.500000,149.350006 L189.100006,114.250000 L189.100006,184.850006 L80.500000,149.750000 L80.250000,149.600006 L80.500000,149.350006 M188.850006,185.100006 L247.750000,204.100006 L283.250000,153.000000 L331.000000,231.000000 L330.600006,231.250000 L247.600006,204.250000 L232.100006,229.750000 L192.100006,295.100006 Q190.000000,299.250000 189.000000,299.100006 L188.850006,185.100006 "/>
		<path style="fill:rgb(42,42,42)"
		 d="M232.000000,69.349998 L330.600006,67.849998 L247.750000,94.849998 L283.250000,146.100006 L285.350006,149.500000 L189.100006,114.250000 L80.500000,149.350006 L103.250000,129.000000 L140.250000,96.250000 L188.850006,114.000000 L247.500000,95.099998 L232.000000,69.349998 M153.100006,70.750000 L142.850006,91.349998 L140.500000,96.000000 L140.100006,96.099998 L74.750000,72.099998 L153.100006,70.750000 "/>
		<path style="fill:rgb(44,44,44)"
		 d="M188.850006,0.000000 L188.850006,114.000000 L140.250000,96.250000 L103.250000,129.000000 L74.750000,72.099998 L140.100006,96.099998 L140.500000,96.000000 L142.850006,91.349998 L153.100006,70.750000 L188.850006,0.000000 M189.100006,114.250000 L285.350006,149.500000 L285.350006,149.600006 L189.100006,184.850006 L189.100006,114.250000 M103.250000,170.100006 L140.250000,202.850006 L188.850006,185.100006 L189.000000,299.100006 L188.600006,299.100006 L153.100006,228.350006 L140.350006,203.000000 L140.000000,203.000000 L74.750000,227.000000 L103.250000,170.100006 "/>
		<path style="fill:rgb(36,36,36)"
		 d="M285.350006,149.600006 L283.250000,153.000000 L247.750000,204.100006 L188.850006,185.100006 L140.250000,202.850006 L103.250000,170.100006 L80.500000,149.750000 L189.100006,184.850006 L285.350006,149.600006 M74.750000,227.000000 L140.000000,203.000000 L140.350006,203.000000 L153.100006,228.350006 L74.750000,227.000000 M232.100006,229.750000 L247.600006,204.250000 L330.600006,231.250000 L232.100006,229.750000 "/>
	</g>
	<g>
		<animate id="FRAME_14" attributeName="visibility" values="visible" dur="33ms" begin="FRAME_13.end"/>
		<path style="fill:rgb(54,54,54)"
		 d="M159.750000,70.000000 L197.250000,2.850000 Q198.350006,-0.350000 199.600006,0.000000 L200.100006,0.000000 L239.250000,70.000000 L253.350006,95.500000 L328.100006,70.000000 L328.250000,70.500000 L291.250000,136.350006 L253.600006,95.599998 L199.600006,114.000000 L145.250000,95.599998 L107.750000,136.350006 L70.750000,70.099998 L145.350006,95.500000 L159.750000,70.000000 M303.250000,149.600006 L199.600006,185.000000 L253.600006,203.500000 L291.250000,162.750000 L327.600006,227.500000 L328.350006,229.000000 L328.000000,229.100006 L253.500000,203.600006 L239.250000,229.100006 L200.100006,299.100006 L199.500000,299.100006 L198.850006,299.100006 L159.750000,229.100006 L145.500000,203.600006 L145.000000,203.600006 L70.849998,229.100006 L70.750000,228.600006 L107.750000,162.850006 L107.849998,162.850006 L145.250000,203.500000 L199.350006,185.100006 L95.750000,149.600006 L199.600006,114.099998 L303.250000,149.600006 "/>
		<path style="fill:rgb(41,41,41)"
		 d="M239.250000,70.000000 L328.100006,70.000000 L253.350006,95.500000 L239.250000,70.000000 M159.750000,70.000000 L145.350006,95.500000 L70.750000,70.099998 L159.750000,70.000000 M107.750000,136.350006 L145.250000,95.599998 L199.600006,114.000000 L253.600006,95.599998 L291.250000,136.350006 L303.250000,149.600006 L199.600006,114.099998 L95.750000,149.600006 L107.750000,136.350006 "/>
		<path style="fill:rgb(35,35,35)"
		 d="M95.750000,149.600006 L199.350006,185.100006 L145.250000,203.500000 L107.849998,162.850006 L107.750000,162.850006 L95.750000,149.600006 M303.250000,149.600006 L291.250000,162.750000 L253.600006,203.500000 L199.600006,185.000000 L303.250000,149.600006 M70.849998,229.100006 L145.000000,203.600006 L145.500000,203.600006 L159.750000,229.100006 L70.849998,229.100006 M253.500000,203.600006 L328.000000,229.100006 L239.250000,229.100006 L253.500000,203.600006 "/>
	</g>
	<g>
		<animate id="FRAME_15" attributeName="visibility" values="visible" dur="33ms" begin="FRAME_14.end"/>
		<path style="fill:rgb(42,42,42)"
		 d="M68.099998,68.000000 L166.850006,69.349998 L159.500000,81.500000 L151.350006,94.750000 L151.600006,95.099998 L209.750000,114.000000 L258.600006,96.250000 L295.750000,129.000000 L318.600006,149.600006 L210.000000,114.250000 L113.500000,149.600006 L115.750000,146.100006 L115.750000,146.000000 L132.850006,121.500000 L151.100006,95.349998 L151.100006,94.849998 L68.099998,68.000000 M245.850006,70.750000 L324.100006,72.000000 L258.500000,96.099998 L245.850006,70.750000 "/>
		<path style="fill:rgb(81,81,81)"
		 d="M166.850006,69.349998 L204.500000,7.850000 L209.250000,0.100000 L209.750000,0.000000 L209.750000,114.000000 L151.600006,95.099998 L151.350006,94.750000 L159.500000,81.500000 L166.850006,69.349998 M68.099998,68.000000 L151.100006,94.849998 L151.100006,95.349998 L132.850006,121.500000 L115.750000,146.000000 L68.099998,68.000000 M318.600006,149.600006 L210.000000,184.850006 L210.000000,114.250000 L318.600006,149.600006 M115.750000,153.100006 L116.000000,153.250000 L132.850006,177.600006 L151.100006,203.750000 L151.100006,204.250000 L68.099998,231.100006 L115.750000,153.100006 M151.350006,204.100006 L209.750000,185.100006 L209.850006,299.100006 L209.250000,299.000000 L208.250000,297.350006 L166.850006,229.750000 L159.500000,217.600006 L151.350006,204.100006 "/>
		<path style="fill:rgb(44,44,44)"
		 d="M209.750000,0.000000 L210.350006,0.000000 L245.850006,70.750000 L258.500000,96.099998 L324.100006,72.000000 L324.350006,72.099998 L295.750000,129.000000 L258.600006,96.250000 L209.750000,114.000000 L209.750000,0.000000 M113.500000,149.600006 L210.000000,114.250000 L210.000000,184.850006 L113.500000,149.600006 M209.750000,185.100006 L258.600006,202.850006 L295.750000,170.100006 L324.350006,227.000000 L324.100006,227.100006 L258.600006,203.000000 L245.850006,228.350006 L210.350006,299.100006 L209.850006,299.100006 L209.750000,185.100006 "/>
		<path style="fill:rgb(36,36,36)"
		 d="M113.500000,149.600006 L210.000000,184.850006 L318.600006,149.600006 L295.750000,170.100006 L258.600006,202.850006 L209.750000,185.100006 L151.350006,204.100006 L159.500000,217.600006 L166.850006,229.750000 L68.099998,231.100006 L151.100006,204.250000 L151.100006,203.750000 L132.850006,177.600006 L116.000000,153.250000 L115.750000,153.100006 L113.500000,149.600006 M245.850006,228.350006 L258.600006,203.000000 L324.100006,227.100006 L245.850006,228.350006 "/>
	</g>
	<g>
		<animate id="FRAME_16" attributeName="visibility" values="visible" dur="33ms" begin="FRAME_15.end"/>
		<path style="fill:rgb(127,127,127)"
		 d="M218.500000,1.850000 L219.850006,0.100000 L220.100006,114.099998 L158.250000,94.500000 L157.500000,95.349998 L122.000000,149.500000 L69.000000,69.099998 L69.000000,69.000000 L68.750000,68.750000 L68.599998,68.500000 L68.349998,68.099998 L67.000000,65.750000 L157.500000,94.349998 L158.000000,94.500000 L159.000000,92.599998 L162.500000,87.750000 L217.850006,2.850000 L217.850006,2.750000 L218.100006,2.500000 L218.250000,2.250000 L218.500000,1.850000 M331.500000,149.600006 L220.100006,184.850006 L220.100006,114.250000 L331.500000,149.600006 M121.849998,149.600006 L157.500000,203.750000 L158.000000,204.600006 L220.100006,185.000000 L220.000000,299.100006 L218.500000,297.250000 L218.250000,296.850006 L218.100006,296.600006 L217.850006,296.350006 L217.850006,296.250000 L159.850006,207.350006 L159.000000,206.500000 L158.000000,204.600006 L157.350006,204.850006 L67.000000,233.350006 L68.349998,231.000000 L68.599998,230.600006 L68.750000,230.500000 L69.000000,230.100006 L69.000000,230.000000 L121.849998,149.600006 "/>
		<path style="fill:rgb(42,42,42)"
		 d="M183.000000,38.099998 L183.100006,37.849998 L183.850006,36.599998 L189.850006,41.000000 L169.750000,68.250000 L182.750000,38.849998 L182.750000,38.750000 L182.850006,38.599998 L183.000000,38.250000 L183.000000,38.099998 M164.750000,68.849998 L169.500000,69.000000 L159.000000,92.599998 L158.000000,94.500000 L157.500000,94.349998 L67.000000,65.750000 L164.750000,68.849998 M251.600006,71.599998 L318.750000,73.849998 L262.850006,96.750000 L297.350006,123.250000 L331.500000,149.600006 L220.100006,114.250000 L133.500000,149.600006 L157.500000,95.349998 L158.250000,94.500000 L220.100006,114.099998 L262.750000,96.849998 L251.600006,71.599998 "/>
		<path style="fill:rgb(35,35,35)"
		 d="M217.850006,2.850000 L162.500000,87.750000 L159.000000,92.599998 L169.500000,69.000000 L164.750000,68.849998 L178.850006,44.849998 L180.750000,42.250000 L182.350006,39.000000 L182.750000,38.849998 L169.750000,68.250000 L189.850006,41.000000 L217.850006,2.850000 M113.849998,144.850006 L116.750000,149.500000 L110.500000,149.500000 L113.849998,144.850006 M157.500000,95.349998 L133.500000,149.600006 L122.000000,149.500000 L157.500000,95.349998 M116.750000,149.500000 L121.849998,149.600006 L69.000000,230.000000 L113.849998,154.250000 L116.750000,149.500000 "/>
		<path style="fill:rgb(38,38,38)"
		 d="M220.350006,0.100000 L251.600006,71.599998 L262.750000,96.849998 L220.100006,114.099998 L219.850006,0.100000 L220.350006,0.100000 M318.750000,74.750000 L297.350006,123.250000 L262.850006,96.750000 L318.750000,73.849998 L318.750000,74.750000 M133.500000,149.600006 L220.100006,114.250000 L220.100006,184.850006 L133.500000,149.600006 M318.750000,225.250000 L262.850006,202.350006 L297.350006,175.850006 L318.750000,224.500000 L318.750000,225.250000 M220.100006,185.000000 L262.750000,202.250000 L251.750000,227.500000 L223.000000,293.100006 L220.350006,299.000000 L220.000000,299.100006 L220.100006,185.000000 "/>
		<path style="fill:rgb(48,48,48)"
		 d="M113.849998,144.850006 L69.000000,69.099998 L122.000000,149.500000 L133.500000,149.600006 L133.600006,150.600006 L134.750000,152.500000 L157.500000,203.750000 L121.849998,149.600006 L116.750000,149.500000 L113.849998,144.850006 M110.500000,149.500000 L116.750000,149.500000 L113.849998,154.250000 L110.500000,149.500000 M164.750000,230.250000 L168.350006,230.100006 L169.500000,230.100006 L169.350006,229.600006 L159.000000,206.500000 L159.850006,207.350006 L217.850006,296.250000 L189.850006,258.100006 L169.750000,230.850006 L182.750000,260.250000 L182.350006,260.100006 L180.750000,256.850006 L180.000000,256.100006 L164.750000,230.250000 "/>
		<path style="fill:rgb(41,41,41)"
		 d="M297.350006,175.850006 L262.850006,202.350006 L318.750000,225.250000 L251.750000,227.500000 L262.750000,202.250000 L220.100006,185.000000 L158.000000,204.600006 L157.500000,203.750000 L134.750000,152.500000 L133.600006,150.600006 L133.500000,149.600006 L220.100006,184.850006 L331.500000,149.600006 L297.350006,175.850006 M159.000000,206.500000 L169.350006,229.600006 L169.500000,230.100006 L168.350006,230.100006 L164.750000,230.250000 L67.000000,233.350006 L157.350006,204.850006 L158.000000,204.600006 L159.000000,206.500000 M182.750000,260.250000 L169.750000,230.850006 L189.850006,258.100006 L184.000000,262.500000 L183.250000,261.350006 L183.100006,261.250000 L183.000000,261.000000 L182.850006,260.600006 L182.750000,260.350006 L182.750000,260.250000 "/>
	</g>
	<g>
		<animate id="FRAME_17" attributeName="visibility" values="visible" dur="33ms" begin="FRAME_16.end"/>
		<path style="fill:rgb(160,160,160)"
		 d="M228.250000,2.500000 L229.500000,1.000000 L229.750000,114.250000 L166.250000,94.250000 L164.750000,95.000000 L164.750000,95.250000 L127.250000,149.500000 L164.750000,204.000000 L164.750000,204.250000 L166.250000,205.000000 L229.750000,185.000000 L229.500000,298.250000 L228.250000,296.750000 L165.750000,206.000000 Q164.500000,204.250000 158.000000,207.250000 L68.000000,235.750000 L69.000000,233.500000 L126.750000,149.500000 L69.000000,66.000000 L68.000000,63.500000 L164.500000,94.000000 L165.500000,94.000000 L165.750000,93.250000 L228.250000,2.500000 M230.250000,114.500000 L341.500000,149.750000 L230.250000,184.750000 L230.250000,114.500000 "/>
		<path style="fill:rgb(41,41,41)"
		 d="M175.750000,37.250000 L176.500000,36.250000 L190.250000,45.500000 L170.250000,68.250000 L175.750000,37.250000 M68.000000,63.500000 L159.000000,68.000000 L170.250000,68.500000 L165.750000,93.250000 L165.500000,94.000000 L164.500000,94.000000 L68.000000,63.500000 M257.000000,73.000000 L312.250000,75.750000 L266.000000,97.500000 L257.000000,73.000000 M164.750000,95.250000 L164.750000,95.000000 L166.250000,94.250000 L229.750000,114.250000 L154.750000,149.750000 L164.750000,95.250000 M230.250000,114.500000 L265.500000,97.750000 L266.500000,97.750000 L296.750000,118.500000 L341.500000,149.750000 L230.250000,114.500000 "/>
		<path style="fill:rgb(78,78,78)"
		 d="M228.250000,2.500000 L165.750000,93.250000 L170.250000,68.500000 L159.000000,68.000000 L175.750000,37.250000 L170.250000,68.250000 L190.250000,45.500000 L228.250000,2.500000 M108.500000,138.750000 L114.250000,149.500000 L99.000000,149.500000 L108.500000,138.750000 M164.750000,95.250000 L154.750000,149.750000 L127.250000,149.500000 L164.750000,95.250000 M108.500000,160.500000 L114.250000,149.750000 L126.750000,149.500000 L69.000000,233.500000 L108.500000,160.500000 "/>
		<path style="fill:rgb(36,36,36)"
		 d="M229.500000,1.000000 L230.250000,0.750000 L257.000000,73.000000 L266.000000,97.500000 L312.250000,75.750000 L296.750000,118.500000 L266.500000,97.750000 L265.500000,97.750000 L230.250000,114.500000 L230.250000,184.750000 L264.750000,201.250000 L266.500000,201.500000 L296.750000,180.750000 L312.250000,223.500000 L266.000000,201.750000 L257.000000,226.250000 L230.250000,298.500000 L229.500000,298.250000 L229.750000,185.000000 L154.750000,149.750000 L229.750000,114.250000 L229.500000,1.000000 "/>
		<path style="fill:rgb(27,27,27)"
		 d="M108.500000,138.750000 L69.000000,66.000000 L126.750000,149.500000 L114.250000,149.750000 L108.500000,160.500000 L99.000000,149.500000 L114.250000,149.500000 L108.500000,138.750000 M127.250000,149.500000 L154.750000,149.750000 L164.750000,204.000000 L127.250000,149.500000 M159.000000,231.250000 L170.250000,230.750000 L165.750000,206.000000 L228.250000,296.750000 L190.250000,253.750000 L170.250000,231.000000 L175.750000,262.250000 L159.000000,231.250000 "/>
		<path style="fill:rgb(50,50,50)"
		 d="M296.750000,180.750000 L266.500000,201.500000 L264.750000,201.250000 L230.250000,184.750000 L341.500000,149.750000 L296.750000,180.750000 M229.750000,185.000000 L166.250000,205.000000 L164.750000,204.250000 L164.750000,204.000000 L154.750000,149.750000 L229.750000,185.000000 M257.000000,226.250000 L266.000000,201.750000 L312.250000,223.500000 L257.000000,226.250000 M159.000000,231.250000 L68.000000,235.750000 L158.000000,207.250000 Q164.500000,204.250000 165.750000,206.000000 L170.250000,230.750000 L159.000000,231.250000 M175.750000,262.250000 L170.250000,231.000000 L190.250000,253.750000 L177.500000,262.500000 L176.000000,263.000000 L175.750000,262.250000 "/>
	</g>
	<g>
		<animate id="FRAME_18" attributeName="visibility" values="visible" dur="33ms" begin="FRAME_17.end"/>
		<path style="fill:rgb(171,171,171)"
		 d="M238.250000,2.500000 L238.750000,2.000000 L239.000000,114.500000 L176.000000,94.750000 L173.750000,94.000000 L173.500000,93.250000 L238.250000,2.500000 M70.250000,61.250000 L71.000000,61.250000 L161.750000,90.000000 Q172.250000,92.250000 173.000000,94.500000 L133.250000,149.500000 L71.000000,62.750000 L70.250000,61.250000 M239.500000,114.750000 L349.000000,149.500000 L349.250000,149.750000 L349.000000,149.750000 L239.500000,184.500000 L239.500000,114.750000 M133.500000,149.750000 L173.000000,204.750000 L173.250000,205.500000 L172.000000,206.000000 L71.000000,238.000000 L70.250000,238.000000 L71.000000,236.750000 L133.500000,149.750000 M173.500000,206.000000 L173.750000,205.250000 L239.000000,184.750000 L238.750000,297.250000 L238.250000,296.750000 L173.500000,206.000000 "/>
		<path style="fill:rgb(40,40,40)"
		 d="M168.500000,36.500000 L169.000000,35.500000 L190.500000,49.250000 L171.500000,67.750000 L173.500000,93.250000 L173.750000,94.000000 L176.000000,94.750000 L239.000000,114.500000 L236.500000,116.500000 L177.500000,149.750000 L173.000000,94.500000 Q172.250000,92.250000 161.750000,90.000000 L71.000000,61.250000 L153.750000,66.750000 L171.250000,68.000000 L168.500000,36.500000 M261.000000,74.250000 L305.000000,77.500000 L268.250000,98.500000 L294.000000,114.500000 L349.000000,149.500000 L239.500000,114.750000 L267.500000,98.750000 L268.000000,98.250000 L261.000000,74.250000 "/>
		<path style="fill:rgb(52,52,52)"
		 d="M238.250000,2.500000 L173.500000,93.250000 L171.500000,67.750000 L190.500000,49.250000 L238.250000,2.500000 M168.500000,36.500000 L171.250000,68.000000 L153.750000,66.750000 L168.500000,36.500000 M105.250000,133.000000 L113.250000,149.500000 L88.250000,149.500000 L105.250000,133.000000 M173.000000,94.500000 L177.500000,149.750000 L133.500000,149.750000 L71.000000,236.750000 L105.000000,166.000000 L113.250000,149.500000 L133.250000,149.500000 L173.000000,94.500000 "/>
		<path style="fill:rgb(45,45,45)"
		 d="M238.750000,2.000000 L239.500000,1.750000 L261.000000,74.250000 L268.000000,98.250000 L267.500000,98.750000 L239.500000,114.750000 L239.500000,184.500000 L268.250000,201.000000 L294.000000,184.750000 L305.000000,221.750000 L268.250000,201.000000 L261.000000,225.000000 L239.500000,297.500000 L238.750000,297.250000 L239.000000,184.750000 L236.500000,182.750000 L177.500000,149.750000 L236.500000,116.500000 L239.000000,114.500000 L238.750000,2.000000 M294.000000,114.500000 L268.250000,98.500000 L305.000000,77.500000 L294.000000,114.500000 "/>
		<path style="fill:rgb(18,18,18)"
		 d="M105.250000,133.000000 L71.000000,62.750000 L133.250000,149.500000 L113.250000,149.500000 L105.250000,133.000000 M88.250000,149.500000 L113.250000,149.500000 L105.000000,166.000000 L88.250000,149.500000 M133.500000,149.750000 L177.500000,149.750000 L173.000000,204.750000 L133.500000,149.750000 M190.500000,250.000000 L171.500000,231.500000 L173.500000,206.000000 L238.250000,296.750000 L190.500000,250.000000 M153.750000,232.500000 L171.250000,231.250000 L168.500000,263.000000 L153.750000,232.500000 "/>
		<path style="fill:rgb(64,64,64)"
		 d="M349.000000,149.750000 L294.000000,184.750000 L268.250000,201.000000 L239.500000,184.500000 L349.000000,149.750000 M236.500000,182.750000 L239.000000,184.750000 L173.750000,205.250000 L173.500000,206.000000 L171.500000,231.500000 L190.500000,250.000000 L169.000000,263.750000 L168.500000,263.000000 L171.250000,231.250000 L153.750000,232.500000 L71.000000,238.000000 L172.000000,206.000000 L173.250000,205.500000 L173.000000,204.750000 L177.500000,149.750000 L236.500000,182.750000 M268.250000,201.000000 L305.000000,221.750000 L261.000000,225.000000 L268.250000,201.000000 "/>
	</g>
	<g>
		<animate id="FRAME_19" attributeName="visibility" values="visible" dur="33ms" begin="FRAME_18.end"/>
		<path style="fill:rgb(169,169,169)"
		 d="M246.750000,3.750000 L247.500000,3.000000 L248.000000,4.000000 L248.000000,114.750000 L354.000000,149.500000 L248.000000,184.500000 L248.000000,295.250000 L248.000000,296.250000 L247.500000,296.000000 L246.750000,295.500000 L181.750000,206.000000 L247.750000,184.250000 L247.750000,115.000000 L182.000000,93.500000 L181.750000,94.000000 L141.250000,149.500000 L181.750000,205.250000 L180.750000,206.250000 L75.250000,240.500000 L74.750000,240.250000 L75.500000,239.250000 L140.750000,149.500000 L75.500000,60.250000 L74.750000,59.000000 L75.250000,58.750000 L181.750000,93.250000 L246.750000,3.750000 "/>
		<path style="fill:rgb(39,39,39)"
		 d="M163.750000,35.750000 L190.750000,52.000000 L173.000000,67.750000 L181.750000,93.250000 L75.250000,58.750000 L148.750000,65.500000 L172.750000,67.500000 L161.500000,35.250000 L161.750000,34.750000 L163.750000,35.750000 M264.250000,75.750000 L296.750000,79.000000 L270.250000,98.250000 L269.750000,99.250000 L289.500000,111.000000 L354.000000,149.500000 L248.000000,114.750000 L269.500000,99.000000 L264.250000,75.750000 M181.750000,94.000000 L182.000000,93.500000 L247.750000,115.000000 L200.750000,149.500000 L181.750000,94.000000 "/>
		<path style="fill:rgb(40,40,40)"
		 d="M246.750000,3.750000 L181.750000,93.250000 L173.000000,67.750000 L190.750000,52.000000 L246.750000,3.750000 M161.500000,35.250000 L172.750000,67.500000 L148.750000,65.500000 L161.500000,35.250000 M103.750000,127.500000 L113.000000,149.500000 L78.250000,149.500000 L103.750000,127.500000 M181.750000,94.000000 L200.750000,149.500000 L141.250000,149.500000 L181.750000,94.000000 M113.000000,149.750000 L140.750000,149.500000 L75.500000,239.250000 L102.500000,175.250000 L103.500000,171.500000 L104.500000,170.500000 L113.000000,149.750000 "/>
		<path style="fill:rgb(77,77,77)"
		 d="M248.000000,4.000000 L264.250000,75.750000 L269.500000,99.000000 L248.000000,114.750000 L248.000000,4.000000 M289.500000,111.000000 L269.750000,99.250000 L270.250000,98.250000 L296.750000,79.000000 L289.500000,111.000000 M247.750000,115.000000 L247.750000,184.250000 L201.000000,149.750000 L200.750000,149.500000 L247.750000,115.000000 M289.500000,188.250000 L296.750000,220.250000 L269.750000,200.500000 L270.000000,199.750000 L289.500000,188.250000 M248.000000,184.500000 L269.500000,200.250000 L264.250000,223.500000 L248.000000,295.250000 L248.000000,184.500000 "/>
		<path style="fill:rgb(17,17,17)"
		 d="M103.750000,127.500000 L75.500000,60.250000 L140.750000,149.500000 L113.000000,149.750000 L104.500000,170.500000 L103.500000,171.500000 L78.250000,149.500000 L113.000000,149.500000 L103.750000,127.500000 M141.250000,149.500000 L200.750000,149.500000 L201.000000,149.750000 L181.750000,205.250000 L141.250000,149.500000 M190.750000,247.250000 L173.000000,231.750000 L181.750000,206.000000 L246.750000,295.500000 L190.750000,247.250000 M148.750000,233.750000 L172.750000,231.750000 L161.500000,264.250000 L148.750000,233.750000 "/>
		<path style="fill:rgb(20,20,20)"
		 d="M247.750000,184.250000 L181.750000,206.000000 L173.000000,231.750000 L190.750000,247.250000 L161.500000,264.250000 L172.750000,231.750000 L148.750000,233.750000 L75.250000,240.500000 L180.750000,206.250000 L181.750000,205.250000 L201.000000,149.750000 L247.750000,184.250000 M248.000000,184.500000 L354.000000,149.500000 L289.500000,188.250000 L270.000000,199.750000 L269.750000,200.500000 L296.750000,220.250000 L264.250000,223.500000 L269.500000,200.250000 L248.000000,184.500000 "/>
	</g>
	<g>
		<animate id="FRAME_20" attributeName="visibility" values="visible" dur="33ms" begin="FRAME_19.end"/>
		<path style="fill:rgb(168,168,168)"
		 d="M254.750000,5.000000 L255.500000,4.750000 L255.500000,115.250000 L190.500000,93.750000 L149.750000,149.500000 L190.500000,205.500000 L255.500000,184.000000 L255.500000,294.500000 L254.750000,294.250000 L190.500000,206.250000 L82.000000,242.750000 L82.000000,241.750000 L149.250000,149.500000 L82.000000,57.750000 L81.500000,57.000000 L82.000000,56.500000 L190.500000,93.000000 L254.750000,5.000000 M255.250000,115.750000 L256.250000,115.500000 L356.250000,149.500000 L356.250000,149.750000 L269.000000,179.500000 L256.250000,183.750000 L255.250000,183.500000 L255.250000,115.750000 "/>
		<path style="fill:rgb(38,38,38)"
		 d="M154.750000,34.000000 L191.000000,54.500000 L174.750000,67.000000 L154.750000,34.000000 M82.000000,56.500000 L144.250000,63.750000 L175.000000,67.250000 L190.500000,93.000000 L82.000000,56.500000 M266.500000,77.750000 L287.500000,80.250000 L287.500000,80.500000 L270.000000,100.000000 L283.500000,107.500000 L356.250000,149.500000 L256.250000,115.500000 L255.250000,115.750000 L224.500000,149.750000 L224.000000,149.500000 L190.500000,93.750000 L255.500000,115.250000 L269.750000,100.000000 L266.500000,77.750000 "/>
		<path style="fill:rgb(39,39,39)"
		 d="M254.750000,5.000000 L190.500000,93.000000 L175.000000,67.250000 L144.250000,63.750000 L154.750000,34.000000 L174.750000,67.000000 L191.000000,54.500000 L254.750000,5.000000 M104.500000,122.000000 L114.000000,149.500000 L69.000000,149.500000 L104.500000,122.000000 M190.500000,93.750000 L224.000000,149.500000 L149.750000,149.500000 L190.500000,93.750000 M104.500000,177.250000 L114.000000,149.750000 L149.250000,149.500000 L82.000000,241.750000 L104.500000,177.250000 "/>
		<path style="fill:rgb(21,21,21)"
		 d="M255.500000,4.750000 L266.500000,77.750000 L269.750000,100.000000 L255.500000,115.250000 L255.500000,4.750000 M287.500000,80.500000 L283.500000,107.500000 L270.000000,100.000000 L287.500000,80.500000 M255.250000,115.750000 L255.250000,183.500000 L224.500000,149.750000 L255.250000,115.750000 M283.500000,191.750000 L287.500000,218.750000 L270.000000,199.750000 L283.500000,191.750000 M255.500000,184.000000 L269.750000,199.250000 L266.500000,221.500000 L255.500000,294.500000 L255.500000,184.000000 "/>
		<path style="fill:rgb(65,65,65)"
		 d="M104.500000,122.000000 L82.000000,57.750000 L149.250000,149.500000 L114.000000,149.750000 L104.500000,177.250000 L69.000000,149.500000 L114.000000,149.500000 L104.500000,122.000000 M149.750000,149.500000 L224.000000,149.500000 L190.500000,205.500000 L149.750000,149.500000 M144.250000,235.500000 L175.000000,232.000000 L190.500000,206.250000 L254.750000,294.250000 L191.000000,244.750000 L174.500000,232.250000 L155.000000,265.250000 L144.250000,235.500000 "/>
		<path style="fill:rgb(24,24,24)"
		 d="M224.000000,149.500000 L224.500000,149.750000 L255.250000,183.500000 L256.250000,183.750000 L269.000000,179.500000 L356.250000,149.750000 L283.500000,191.750000 L270.000000,199.750000 L287.500000,218.750000 L287.500000,219.250000 L266.500000,221.500000 L269.750000,199.250000 L255.500000,184.000000 L190.500000,205.500000 L224.000000,149.500000 M144.250000,235.500000 L82.000000,242.750000 L190.500000,206.250000 L175.000000,232.000000 L144.250000,235.500000 M155.000000,265.250000 L174.500000,232.250000 L191.000000,244.750000 L155.000000,265.250000 "/>
	</g>
	<g>
		<animate id="FRAME_21" attributeName="visibility" values="visible" dur="33ms" begin="FRAME_20.end"/>
		<path style="fill:rgb(155,155,155)"
		 d="M261.500000,6.750000 L262.000000,6.250000 L262.250000,6.750000 L262.250000,115.500000 L199.750000,93.250000 L199.500000,93.750000 L159.250000,149.500000 L199.500000,205.500000 L196.250000,207.250000 L91.000000,244.750000 L90.250000,245.000000 L90.500000,244.000000 L91.500000,243.500000 L158.750000,149.500000 L91.500000,55.750000 L90.500000,55.250000 L90.250000,54.500000 L91.000000,54.500000 L199.500000,93.000000 L261.500000,6.750000 M262.000000,116.500000 L262.250000,115.750000 L356.000000,149.250000 L356.250000,149.250000 L357.000000,149.500000 L356.250000,150.000000 L356.000000,150.000000 L262.250000,183.750000 L262.250000,292.500000 L261.500000,292.500000 L199.500000,206.250000 L262.000000,183.750000 L262.000000,182.750000 L262.000000,116.500000 "/>
		<path style="fill:rgb(38,38,38)"
		 d="M148.250000,33.000000 L191.250000,56.500000 L177.250000,67.000000 L199.500000,93.000000 L91.000000,54.500000 L140.500000,61.500000 L176.750000,66.500000 L148.250000,33.000000 M267.750000,79.750000 L277.750000,81.500000 L277.750000,82.000000 L269.250000,99.750000 L267.750000,79.750000 M262.250000,115.500000 L269.000000,100.750000 L276.250000,104.250000 L356.000000,149.250000 L262.250000,115.750000 L262.000000,116.500000 L247.000000,149.750000 L246.500000,149.500000 L199.500000,205.500000 L159.250000,149.500000 L246.500000,149.500000 L199.500000,93.750000 L199.750000,93.250000 L262.250000,115.500000 M107.250000,116.500000 L90.500000,55.250000 L91.500000,55.750000 L158.750000,149.500000 L116.250000,149.500000 L107.250000,116.500000 M61.000000,149.500000 L116.250000,149.500000 L107.000000,182.500000 L61.000000,149.500000 M191.250000,242.750000 L177.250000,232.750000 L187.500000,219.750000 L199.500000,206.250000 L261.500000,292.500000 L191.250000,242.750000 M140.500000,237.750000 L176.750000,232.500000 L148.250000,266.250000 L140.500000,237.750000 "/>
		<path style="fill:rgb(42,42,42)"
		 d="M261.500000,6.750000 L199.500000,93.000000 L177.250000,67.000000 L191.250000,56.500000 L261.500000,6.750000 M148.250000,33.000000 L176.750000,66.500000 L140.500000,61.500000 L148.250000,33.000000 M107.250000,116.500000 L116.250000,149.500000 L61.000000,149.500000 L107.250000,116.500000 M199.500000,93.750000 L246.500000,149.500000 L159.250000,149.500000 L199.500000,93.750000 M107.000000,182.500000 L116.250000,149.500000 L158.750000,149.500000 L91.500000,243.500000 L90.500000,244.000000 L107.000000,182.500000 "/>
		<path style="fill:rgb(27,27,27)"
		 d="M262.250000,6.750000 L267.750000,79.750000 L269.250000,99.750000 L277.750000,82.000000 L276.250000,104.250000 L269.000000,100.750000 L262.250000,115.500000 L262.250000,6.750000 M247.000000,149.750000 L262.000000,116.500000 L262.000000,182.750000 L247.000000,149.750000 M262.250000,183.750000 L269.000000,198.500000 L276.250000,195.000000 L277.750000,217.250000 L269.250000,199.500000 L267.750000,219.500000 L262.250000,292.500000 L262.250000,183.750000 "/>
		<path style="fill:rgb(29,29,29)"
		 d="M247.000000,149.750000 L262.000000,182.750000 L262.000000,183.750000 L199.500000,206.250000 L187.500000,219.750000 L177.250000,232.750000 L191.250000,242.750000 L148.250000,266.250000 L176.750000,232.500000 L140.500000,237.750000 L91.000000,244.750000 L196.250000,207.250000 L199.500000,205.500000 L246.500000,149.500000 L247.000000,149.750000 M356.000000,150.000000 L276.250000,195.000000 L269.000000,198.500000 L262.250000,183.750000 L356.000000,150.000000 M277.750000,217.250000 L277.750000,218.000000 L267.750000,219.500000 L269.250000,199.500000 L277.750000,217.250000 "/>
	</g>
	<g>
		<animate id="FRAME_22" attributeName="visibility" values="visible" dur="33ms" begin="FRAME_21.end"/>
		<path style="fill:rgb(118,118,118)"
		 d="M101.250000,53.000000 L101.250000,52.250000 L102.250000,52.500000 L208.250000,93.250000 L267.250000,8.500000 L268.000000,8.250000 L268.000000,101.250000 L267.750000,116.250000 L208.500000,93.750000 L169.500000,149.500000 L208.500000,205.500000 L268.000000,183.000000 L268.000000,198.000000 L268.000000,291.000000 L267.250000,290.750000 L208.250000,206.000000 L102.250000,246.750000 L101.500000,247.000000 L101.250000,246.250000 L168.750000,149.500000 L101.250000,53.000000 M354.250000,149.250000 L354.500000,149.250000 L355.250000,149.500000 L354.500000,150.000000 L354.250000,150.000000 L268.000000,183.000000 L268.250000,149.750000 L268.000000,149.500000 L268.000000,116.250000 L354.250000,149.250000 "/>
		<path style="fill:rgb(41,41,41)"
		 d="M142.750000,31.750000 L191.500000,58.500000 L179.750000,66.250000 L180.000000,66.750000 L208.250000,93.250000 L102.250000,52.500000 L137.000000,58.750000 L179.250000,66.250000 L142.750000,31.750000 M208.500000,93.750000 L267.750000,116.250000 L268.000000,101.250000 L354.250000,149.250000 L268.000000,116.250000 L268.000000,149.500000 L208.500000,93.750000 "/>
		<path style="fill:rgb(45,45,45)"
		 d="M191.500000,58.500000 L267.250000,8.500000 L208.250000,93.250000 L180.000000,66.750000 L179.750000,66.250000 L191.500000,58.500000 M137.000000,58.750000 L141.250000,35.750000 Q141.250000,31.500000 142.750000,31.750000 L179.250000,66.250000 L137.000000,58.750000 M54.000000,149.500000 L112.250000,111.000000 L119.750000,149.500000 L54.000000,149.500000 M208.500000,93.750000 L268.000000,149.500000 L169.500000,149.500000 L208.500000,93.750000 M119.750000,149.500000 L168.750000,149.500000 L101.250000,246.250000 L112.000000,188.000000 L119.750000,149.500000 "/>
		<path style="fill:rgb(29,29,29)"
		 d="M101.250000,53.000000 L168.750000,149.500000 L119.750000,149.500000 L112.000000,188.000000 L54.000000,149.500000 L119.750000,149.500000 L112.250000,111.000000 L101.250000,53.000000 M169.500000,149.500000 L268.000000,149.500000 L268.250000,149.750000 L208.500000,205.500000 L169.500000,149.500000 M191.500000,240.750000 L179.750000,233.000000 L208.250000,206.000000 L267.250000,290.750000 L191.500000,240.750000 M137.000000,240.500000 L179.250000,233.000000 L142.750000,267.500000 L142.000000,267.250000 L137.000000,240.500000 "/>
		<path style="fill:rgb(36,36,36)"
		 d="M268.000000,183.000000 L208.500000,205.500000 L268.250000,149.750000 L268.000000,183.000000 L354.250000,150.000000 L268.000000,198.000000 L268.000000,183.000000 M191.500000,240.750000 L142.750000,267.500000 L179.250000,233.000000 L137.000000,240.500000 L102.250000,246.750000 L208.250000,206.000000 L179.750000,233.000000 L191.500000,240.750000 "/>
	</g>
	<g>
		<animate id="FRAME_23" attributeName="visibility" values="visible" dur="33ms" begin="FRAME_22.end"/>
		<path style="fill:rgb(78,78,78)"
		 d="M114.250000,50.500000 L114.750000,50.750000 L217.000000,93.500000 L217.000000,93.750000 L180.250000,149.500000 L217.000000,205.750000 L216.750000,206.000000 L114.750000,248.500000 L114.250000,248.750000 L114.000000,248.250000 L179.750000,149.500000 L114.000000,51.000000 L114.250000,50.500000 M271.750000,10.750000 L272.750000,10.250000 L272.750000,105.750000 L272.500000,116.750000 L217.250000,93.500000 L271.750000,10.750000 M350.000000,149.000000 L350.250000,149.000000 L350.750000,149.250000 L351.500000,149.500000 L350.750000,150.000000 L350.250000,150.250000 L350.000000,150.250000 L272.750000,182.500000 L272.750000,193.500000 L272.750000,289.000000 L271.750000,288.500000 L217.250000,205.750000 L271.500000,183.000000 Q272.750000,183.250000 274.250000,179.500000 L287.750000,149.750000 L287.500000,149.500000 L272.750000,116.750000 L350.000000,149.000000 "/>
		<path style="fill:rgb(49,49,49)"
		 d="M134.000000,55.000000 L136.500000,30.750000 L137.250000,30.250000 L182.000000,66.000000 L134.000000,55.000000 M191.500000,60.500000 L271.750000,10.750000 L217.250000,93.500000 L217.000000,93.500000 L182.500000,66.250000 L191.500000,60.500000 M48.500000,149.500000 L119.750000,105.250000 L124.250000,149.500000 L48.500000,149.500000 M180.250000,149.500000 L217.000000,93.750000 L287.500000,149.500000 L180.250000,149.500000 M119.750000,194.000000 L124.250000,149.500000 L179.750000,149.500000 L114.000000,248.250000 L119.750000,194.000000 "/>
		<path style="fill:rgb(50,50,50)"
		 d="M114.750000,50.750000 L134.000000,55.000000 L182.000000,66.000000 L137.250000,30.250000 L191.500000,60.500000 L182.500000,66.250000 L217.000000,93.500000 L217.250000,93.500000 L272.500000,116.750000 L272.750000,105.750000 L350.000000,149.000000 L272.750000,116.750000 L287.500000,149.500000 L217.000000,93.750000 L217.000000,93.500000 L114.750000,50.750000 "/>
		<path style="fill:rgb(30,30,30)"
		 d="M114.000000,51.000000 L179.750000,149.500000 L124.250000,149.500000 L119.750000,194.000000 L48.500000,149.500000 L124.250000,149.500000 L119.750000,105.250000 L114.000000,51.000000 M180.250000,149.500000 L287.500000,149.500000 L287.750000,149.750000 L217.000000,205.750000 L217.250000,205.750000 L271.750000,288.500000 L191.500000,238.750000 L182.500000,233.000000 L216.750000,206.000000 L217.000000,205.750000 L180.250000,149.500000 M134.000000,244.250000 L182.000000,233.250000 L137.250000,269.000000 L136.500000,268.500000 L134.000000,244.250000 "/>
		<path style="fill:rgb(46,46,46)"
		 d="M272.750000,182.500000 L350.000000,150.250000 L272.750000,193.500000 L272.750000,182.500000 M217.000000,205.750000 L287.750000,149.750000 L274.250000,179.500000 Q272.750000,183.250000 271.500000,183.000000 L217.250000,205.750000 L217.000000,205.750000 M191.500000,238.750000 L137.250000,269.000000 L182.000000,233.250000 L134.000000,244.250000 L114.750000,248.500000 L216.750000,206.000000 L182.500000,233.000000 L191.500000,238.750000 "/>
	</g>
	<g>
		<animate id="FRAME_24" attributeName="visibility" values="visible" dur="33ms" begin="FRAME_23.end"/>
		<path style="fill:rgb(53,53,53)"
		 d="M128.500000,49.250000 L129.000000,49.000000 L129.750000,49.250000 L224.750000,93.250000 L186.000000,66.250000 Q185.750000,64.750000 191.750000,62.000000 L275.500000,12.500000 L276.250000,12.250000 L276.250000,110.000000 L276.000000,117.250000 L226.000000,94.000000 L305.000000,149.500000 L276.500000,117.500000 L344.750000,149.000000 L345.000000,149.000000 L345.500000,149.250000 L346.250000,149.500000 L345.500000,150.000000 L345.000000,150.250000 L344.750000,150.250000 L276.500000,181.750000 L305.250000,149.750000 L305.000000,149.500000 L191.250000,149.500000 L225.250000,205.000000 L226.000000,205.250000 L276.000000,182.000000 L276.250000,189.250000 L276.250000,287.000000 L275.500000,286.750000 L225.750000,205.750000 L224.750000,206.000000 L129.750000,250.000000 L129.000000,250.250000 L128.500000,250.000000 L129.000000,199.750000 L130.000000,149.500000 L44.750000,149.500000 L129.250000,99.250000 L130.000000,149.500000 L190.750000,149.500000 L128.750000,49.750000 L128.500000,49.250000 M131.500000,49.750000 L131.750000,31.000000 L131.750000,28.750000 L132.500000,28.750000 L184.750000,65.500000 L131.500000,49.750000 "/>
		<path style="fill:rgb(66,66,66)"
		 d="M129.750000,49.250000 L131.500000,49.750000 L184.750000,65.500000 L132.500000,28.750000 L191.750000,62.000000 Q185.750000,64.750000 186.000000,66.250000 L224.750000,93.250000 L129.750000,49.250000 M226.000000,94.000000 L276.000000,117.250000 L276.250000,110.000000 L344.750000,149.000000 L276.500000,117.500000 L305.000000,149.500000 L226.000000,94.000000 "/>
		<path style="fill:rgb(32,32,32)"
		 d="M129.250000,99.250000 L128.750000,49.750000 L190.750000,149.500000 L130.000000,149.500000 L129.250000,99.250000 M44.750000,149.500000 L130.000000,149.500000 L129.000000,199.750000 L55.500000,156.500000 L44.750000,149.500000 M191.250000,149.500000 L305.000000,149.500000 L305.250000,149.750000 L226.000000,205.250000 L225.250000,205.000000 L191.250000,149.500000 M191.750000,237.250000 L185.750000,233.250000 L224.750000,206.000000 L225.750000,205.750000 L275.500000,286.750000 L191.750000,237.250000 M131.500000,249.500000 L184.750000,233.750000 L132.500000,270.500000 L131.750000,270.750000 L131.500000,249.500000 "/>
		<path style="fill:rgb(57,57,57)"
		 d="M276.500000,181.750000 L344.750000,150.250000 L276.250000,189.250000 L276.000000,182.000000 L226.000000,205.250000 L305.250000,149.750000 L276.500000,181.750000 M191.750000,237.250000 L132.500000,270.500000 L184.750000,233.750000 L131.500000,249.500000 L129.750000,250.000000 L224.750000,206.000000 L185.750000,233.250000 L191.750000,237.250000 "/>
	</g>
	<g>
		<animate id="FRAME_25" attributeName="visibility" values="visible" dur="33ms" begin="FRAME_24.end"/>
		<path style="fill:rgb(57,57,57)"
		 d="M128.250000,27.000000 L129.000000,27.500000 L129.750000,28.000000 L130.250000,28.250000 L187.500000,64.750000 L148.000000,49.000000 L147.750000,49.000000 L146.500000,48.250000 L145.250000,47.750000 L144.750000,48.250000 L144.500000,49.500000 L144.250000,50.250000 L144.250000,50.500000 L133.000000,96.250000 L127.500000,30.500000 L127.500000,27.250000 L128.250000,27.000000 M191.750000,64.000000 L278.000000,14.750000 L234.000000,93.500000 L233.250000,94.000000 L231.750000,93.000000 L189.750000,66.250000 Q188.250000,64.500000 191.750000,64.000000 M233.750000,94.250000 L234.250000,94.500000 L234.500000,94.750000 L319.500000,149.000000 L320.000000,149.500000 L202.500000,149.500000 L233.750000,94.250000 M133.000000,97.750000 L137.000000,148.000000 L136.750000,149.500000 L42.500000,149.500000 L127.500000,100.500000 L133.000000,97.750000 M137.000000,151.250000 L137.000000,149.500000 L202.000000,149.500000 L162.250000,221.000000 L145.500000,250.750000 L144.750000,251.000000 L144.500000,249.750000 L144.250000,249.000000 L144.250000,248.750000 L137.000000,151.250000 "/>
		<path style="fill:rgb(43,43,43)"
		 d="M144.750000,48.250000 L145.250000,47.750000 L146.500000,48.250000 L147.750000,49.000000 L148.000000,49.000000 L231.750000,93.000000 L233.250000,94.000000 L234.000000,93.500000 L278.000000,14.750000 L278.500000,14.500000 L278.500000,114.250000 L278.500000,117.500000 L277.500000,117.250000 L234.500000,94.750000 L234.250000,94.500000 L233.750000,94.250000 L202.500000,149.500000 L233.750000,205.000000 L234.250000,204.750000 L234.500000,204.500000 L277.000000,182.250000 Q279.750000,181.000000 278.500000,185.000000 L278.500000,284.750000 L278.000000,284.500000 L234.000000,205.750000 L233.250000,205.250000 L231.750000,206.250000 L148.000000,250.250000 L147.750000,250.250000 L146.500000,251.000000 L145.250000,251.500000 L144.750000,251.000000 L145.500000,250.750000 L162.250000,221.000000 L202.000000,149.500000 L145.500000,48.500000 L144.750000,48.250000 M336.250000,148.000000 L336.500000,148.000000 L337.000000,148.250000 L337.500000,148.500000 L339.500000,149.500000 L337.500000,150.750000 L337.000000,151.000000 L336.500000,151.250000 L336.250000,151.250000 L279.750000,180.750000 L319.500000,150.250000 L320.000000,150.000000 L320.250000,149.500000 L320.000000,149.500000 L319.500000,149.000000 L279.750000,118.500000 L336.250000,148.000000 "/>
		<path style="fill:rgb(34,34,34)"
		 d="M144.750000,48.250000 L145.500000,48.500000 L202.000000,149.500000 L137.000000,149.500000 L137.000000,151.250000 L133.000000,201.500000 L127.750000,198.750000 L127.500000,198.750000 L42.500000,149.500000 L136.750000,149.500000 L137.000000,148.000000 L144.250000,50.500000 L144.250000,50.250000 L144.500000,49.500000 L144.750000,48.250000 M320.000000,149.500000 L320.250000,149.500000 L320.000000,150.000000 L319.500000,150.250000 L234.500000,204.500000 L234.250000,204.750000 L233.750000,205.000000 L202.500000,149.500000 L320.000000,149.500000 M191.750000,235.250000 L189.000000,233.500000 L231.750000,206.250000 L233.250000,205.250000 L234.000000,205.750000 L278.000000,284.500000 L191.750000,235.250000 M144.250000,248.750000 L144.250000,249.000000 L144.500000,249.750000 L144.750000,251.000000 L145.250000,251.500000 L146.500000,251.000000 L147.750000,250.250000 L148.000000,250.250000 L187.500000,234.500000 L130.250000,271.000000 L129.750000,271.250000 L129.000000,271.750000 L128.250000,272.250000 L127.500000,272.500000 L127.500000,268.750000 L133.000000,203.000000 L144.250000,248.750000 "/>
		<path style="fill:rgb(92,92,92)"
		 d="M130.250000,28.250000 L191.750000,64.000000 Q188.250000,64.500000 189.750000,66.250000 L231.750000,93.000000 L148.000000,49.000000 L187.500000,64.750000 L130.250000,28.250000 M234.500000,94.750000 L277.500000,117.250000 L278.500000,117.500000 L278.500000,114.250000 L336.250000,148.000000 L279.750000,118.500000 L319.500000,149.000000 L234.500000,94.750000 "/>
		<path style="fill:rgb(31,31,31)"
		 d="M133.000000,96.250000 L144.250000,50.500000 L137.000000,148.000000 L133.000000,97.750000 L127.500000,100.500000 L127.500000,30.500000 L133.000000,96.250000 M127.500000,198.750000 L127.750000,198.750000 L133.000000,201.500000 L137.000000,151.250000 L144.250000,248.750000 L133.000000,203.000000 L127.500000,268.750000 L127.500000,198.750000 "/>
		<path style="fill:rgb(68,68,68)"
		 d="M319.500000,150.250000 L279.750000,180.750000 L336.250000,151.250000 L278.500000,185.000000 Q279.750000,181.000000 277.000000,182.250000 L234.500000,204.500000 L319.500000,150.250000 M191.750000,235.250000 L130.250000,271.000000 L187.500000,234.500000 L148.000000,250.250000 L231.750000,206.250000 L189.000000,233.500000 L191.750000,235.250000 "/>
	</g>
	<g>
		<animate id="FRAME_26" attributeName="visibility" values="visible" dur="33ms" begin="FRAME_25.end"/>
		<path style="fill:rgb(62,62,62)"
		 d="M124.000000,26.500000 L124.500000,24.750000 L162.000000,47.250000 L161.750000,48.000000 L137.500000,94.750000 L136.000000,96.500000 L125.000000,29.250000 L124.000000,26.500000 M193.000000,65.250000 L279.250000,16.750000 L249.500000,77.500000 L241.000000,94.500000 L240.500000,94.250000 L193.000000,65.250000 M136.250000,97.000000 L145.000000,148.750000 L144.500000,149.500000 L42.500000,149.500000 L124.000000,103.500000 L136.250000,97.000000 M213.750000,149.500000 L241.000000,94.500000 L279.750000,117.500000 L332.750000,149.500000 L213.750000,149.500000 M145.000000,150.500000 L145.000000,149.500000 L213.250000,149.500000 L162.250000,252.250000 L161.750000,251.250000 L145.000000,150.500000 "/>
		<path style="fill:rgb(36,36,36)"
		 d="M162.000000,47.250000 L213.250000,149.500000 L145.000000,149.500000 L145.000000,150.500000 L136.250000,202.250000 L124.250000,195.750000 L124.000000,195.750000 L42.500000,149.500000 L144.500000,149.500000 L145.000000,148.750000 L161.750000,48.000000 L162.000000,47.250000 M213.750000,149.500000 L332.750000,149.500000 L333.000000,149.750000 L279.750000,181.750000 L241.250000,204.500000 L241.000000,205.250000 L279.250000,282.500000 L193.000000,234.000000 L241.000000,204.750000 L213.750000,149.500000 M161.750000,251.250000 L162.250000,252.250000 L124.500000,274.500000 L124.000000,272.750000 L125.000000,270.000000 L136.000000,202.750000 L137.500000,204.500000 L161.750000,251.250000 "/>
		<path style="fill:rgb(38,38,38)"
		 d="M162.000000,47.250000 L163.750000,47.250000 L193.000000,65.250000 L240.500000,94.250000 L241.000000,94.500000 L249.500000,77.500000 L279.250000,16.750000 L279.750000,16.500000 L279.750000,117.500000 L241.000000,94.500000 L213.750000,149.500000 L241.000000,204.750000 L193.000000,234.000000 L163.750000,252.000000 L162.250000,252.250000 L213.250000,149.500000 L162.000000,47.250000 M279.250000,282.500000 L241.000000,205.250000 L241.250000,204.500000 L279.750000,181.750000 L279.750000,282.750000 L279.250000,282.500000 "/>
		<path style="fill:rgb(21,21,21)"
		 d="M124.000000,26.500000 L125.000000,29.250000 L136.000000,96.500000 L137.500000,94.750000 L161.750000,48.000000 L145.000000,148.750000 L136.250000,97.000000 L124.000000,103.500000 L124.000000,26.500000 M124.000000,195.750000 L124.250000,195.750000 L136.250000,202.250000 L145.000000,150.500000 L161.750000,251.250000 L137.500000,204.500000 L136.000000,202.750000 L125.000000,270.000000 L124.000000,272.750000 L124.000000,195.750000 "/>
	</g>
	<g>
		<animate id="FRAME_27" attributeName="visibility" values="visible" dur="33ms" begin="FRAME_26.end"/>
		<path style="fill:rgb(63,63,63)"
		 d="M121.500000,24.500000 L122.000000,23.000000 L174.750000,53.250000 L140.250000,96.000000 L121.500000,24.500000 M202.500000,61.750000 L279.500000,19.000000 L247.750000,94.750000 L202.500000,61.750000 M121.500000,106.500000 L140.250000,96.250000 L154.000000,149.000000 L44.750000,149.500000 L121.500000,106.500000 M224.750000,149.500000 L247.500000,95.500000 L248.250000,95.250000 L280.000000,113.500000 L342.500000,149.500000 L224.750000,149.500000 M154.000000,150.250000 L154.000000,149.500000 L224.250000,149.500000 L180.500000,253.000000 L180.250000,252.500000 L154.000000,150.250000 "/>
		<path style="fill:rgb(80,80,80)"
		 d="M174.750000,53.250000 L180.250000,46.750000 L154.000000,149.000000 L140.250000,96.250000 L121.500000,106.500000 L121.500000,24.500000 L140.250000,96.000000 L174.750000,53.250000 M121.500000,192.750000 L121.750000,192.750000 L140.250000,203.000000 L154.000000,150.250000 L180.250000,252.500000 L174.750000,246.000000 L140.250000,203.250000 L121.500000,275.000000 L121.500000,192.750000 "/>
		<path style="fill:rgb(36,36,36)"
		 d="M180.250000,46.750000 L181.000000,46.000000 L202.500000,61.750000 L247.750000,94.750000 L279.500000,19.000000 L280.000000,18.750000 L280.000000,113.500000 L248.250000,95.250000 L247.500000,95.500000 L224.750000,149.500000 L247.750000,204.000000 L280.000000,185.750000 L280.000000,280.500000 L279.500000,280.250000 L247.750000,204.500000 L202.500000,237.500000 L180.500000,253.000000 L224.250000,149.500000 L180.250000,46.750000 "/>
		<path style="fill:rgb(38,38,38)"
		 d="M180.250000,46.750000 L224.250000,149.500000 L154.000000,149.500000 L154.000000,150.250000 L140.250000,203.000000 L121.750000,192.750000 L121.500000,192.750000 L45.500000,150.500000 L44.250000,149.750000 L44.750000,149.500000 L154.000000,149.000000 L180.250000,46.750000 M224.750000,149.500000 L342.500000,149.500000 L342.750000,149.750000 L280.000000,185.750000 L247.750000,204.000000 L224.750000,149.500000 M174.750000,246.000000 L122.250000,276.250000 L121.500000,276.500000 L121.500000,275.000000 L140.250000,203.250000 L174.750000,246.000000 M202.500000,237.500000 L247.750000,204.500000 L279.500000,280.250000 L202.500000,237.500000 "/>
	</g>
</svg>